<?xml version="1.0" encoding="UTF-8" standalone="no"?>
<!-- Created with Inkscape (http://www.inkscape.org/) -->

<svg
   width="610.47363mm"
   height="642.28088mm"
   viewBox="0 0 610.47365 642.2809"
   version="1.1"
   id="svg1"
   inkscape:version="1.3.2 (091e20e, 2023-11-25, custom)"
   sodipodi:docname="dianthus.svg"
   xmlns:inkscape="http://www.inkscape.org/namespaces/inkscape"
   xmlns:sodipodi="http://sodipodi.sourceforge.net/DTD/sodipodi-0.dtd"
   xmlns="http://www.w3.org/2000/svg"
   xmlns:svg="http://www.w3.org/2000/svg">
  <sodipodi:namedview
     id="namedview1"
     pagecolor="#ffffff"
     bordercolor="#000000"
     borderopacity="0.25"
     inkscape:showpageshadow="2"
     inkscape:pageopacity="0.0"
     inkscape:pagecheckerboard="0"
     inkscape:deskcolor="#d1d1d1"
     inkscape:document-units="mm"
     inkscape:export-bgcolor="#ffffff00"
     inkscape:zoom="0.25858552"
     inkscape:cx="1742.1703"
     inkscape:cy="1390.2557"
     inkscape:window-width="2560"
     inkscape:window-height="1017"
     inkscape:window-x="-8"
     inkscape:window-y="-8"
     inkscape:window-maximized="1"
     inkscape:current-layer="layer1" />
  <defs
     id="defs1">
    <inkscape:path-effect
       effect="bspline"
       id="path-effect41"
       is_visible="true"
       lpeversion="1.3"
       weight="33.333333"
       steps="2"
       helper_size="0"
       apply_no_weight="true"
       apply_with_weight="true"
       only_selected="false"
       uniform="false" />
    <inkscape:path-effect
       effect="bspline"
       id="path-effect40"
       is_visible="true"
       lpeversion="1.3"
       weight="33.333333"
       steps="2"
       helper_size="0"
       apply_no_weight="true"
       apply_with_weight="true"
       only_selected="false"
       uniform="false" />
    <inkscape:path-effect
       effect="bspline"
       id="path-effect39"
       is_visible="true"
       lpeversion="1.3"
       weight="33.333333"
       steps="2"
       helper_size="0"
       apply_no_weight="true"
       apply_with_weight="true"
       only_selected="false"
       uniform="false" />
    <inkscape:path-effect
       effect="bspline"
       id="path-effect38"
       is_visible="true"
       lpeversion="1.3"
       weight="33.333333"
       steps="2"
       helper_size="0"
       apply_no_weight="true"
       apply_with_weight="true"
       only_selected="false"
       uniform="false" />
    <inkscape:path-effect
       effect="bspline"
       id="path-effect37"
       is_visible="true"
       lpeversion="1.3"
       weight="33.333333"
       steps="2"
       helper_size="0"
       apply_no_weight="true"
       apply_with_weight="true"
       only_selected="false"
       uniform="false" />
    <inkscape:path-effect
       effect="bspline"
       id="path-effect36"
       is_visible="true"
       lpeversion="1.3"
       weight="33.333333"
       steps="2"
       helper_size="0"
       apply_no_weight="true"
       apply_with_weight="true"
       only_selected="false"
       uniform="false" />
    <inkscape:path-effect
       effect="bspline"
       id="path-effect35"
       is_visible="true"
       lpeversion="1.3"
       weight="33.333333"
       steps="2"
       helper_size="0"
       apply_no_weight="true"
       apply_with_weight="true"
       only_selected="false"
       uniform="false" />
    <inkscape:path-effect
       effect="bspline"
       id="path-effect34"
       is_visible="true"
       lpeversion="1.3"
       weight="33.333333"
       steps="2"
       helper_size="0"
       apply_no_weight="true"
       apply_with_weight="true"
       only_selected="false"
       uniform="false" />
    <inkscape:path-effect
       effect="bspline"
       id="path-effect33"
       is_visible="true"
       lpeversion="1.3"
       weight="33.333333"
       steps="2"
       helper_size="0"
       apply_no_weight="true"
       apply_with_weight="true"
       only_selected="false"
       uniform="false" />
    <inkscape:path-effect
       effect="bspline"
       id="path-effect32"
       is_visible="true"
       lpeversion="1.3"
       weight="33.333333"
       steps="2"
       helper_size="0"
       apply_no_weight="true"
       apply_with_weight="true"
       only_selected="false"
       uniform="false" />
    <inkscape:path-effect
       effect="bspline"
       id="path-effect31"
       is_visible="true"
       lpeversion="1.3"
       weight="33.333333"
       steps="2"
       helper_size="0"
       apply_no_weight="true"
       apply_with_weight="true"
       only_selected="false"
       uniform="false" />
    <inkscape:path-effect
       effect="bspline"
       id="path-effect30"
       is_visible="true"
       lpeversion="1.3"
       weight="33.333333"
       steps="2"
       helper_size="0"
       apply_no_weight="true"
       apply_with_weight="true"
       only_selected="false"
       uniform="false" />
    <inkscape:path-effect
       effect="bspline"
       id="path-effect29"
       is_visible="true"
       lpeversion="1.3"
       weight="33.333333"
       steps="2"
       helper_size="0"
       apply_no_weight="true"
       apply_with_weight="true"
       only_selected="false"
       uniform="false" />
    <inkscape:path-effect
       effect="bspline"
       id="path-effect28"
       is_visible="true"
       lpeversion="1.3"
       weight="33.333333"
       steps="2"
       helper_size="0"
       apply_no_weight="true"
       apply_with_weight="true"
       only_selected="false"
       uniform="false" />
  </defs>
  <g
     inkscape:label="Layer 1"
     inkscape:groupmode="layer"
     id="layer1"
     transform="translate(-318.84293,-53.677205)"
     style="display:inline">
    <path
       style="display:inline;fill:#2ca02c;stroke-width:0.264583"
       d="m 634.89232,291.09889 c 1.53479,-1.53478 1.53479,-5.62757 1.87585,-8.86768 0.34107,-3.24012 1.0232,-5.62757 2.55799,-11.93727 1.53479,-6.30971 3.92224,-16.54165 6.13916,-23.70402 2.21692,-7.16236 4.26332,-11.25514 5.79811,-15.51845 1.5348,-4.26331 2.55799,-8.69715 5.62757,-15.34792 3.06959,-6.65077 8.18555,-15.51845 13.47206,-24.89774 5.2865,-9.37929 10.74354,-19.27017 13.98366,-24.7272 3.24012,-5.45704 4.26331,-6.48023 5.62757,-8.01502 1.36426,-1.5348 3.06959,-3.58118 4.94545,-5.45705 1.87586,-1.87586 3.92224,-3.58117 4.94543,-4.7749 1.0232,-1.19373 1.0232,-1.87586 1.53479,-2.21692 0.5116,-0.34107 1.5348,-0.34107 2.89906,-0.85266 1.36426,-0.5116 3.06958,-1.53479 5.96863,-2.04639 2.89905,-0.5116 6.99184,-0.5116 9.72036,0.51159 2.72851,1.0232 4.09277,3.06959 6.13916,5.62758 2.0464,2.55799 4.77491,5.62756 6.30971,7.67395 1.53479,2.04639 1.87586,3.06959 2.55799,4.26331 0.68213,1.19373 1.70533,2.55799 2.72851,3.58118 1.02319,1.02319 2.04638,1.70533 2.55798,2.55799 0.5116,0.85266 0.5116,1.87586 1.0232,2.89905 0.51159,1.0232 1.53479,2.04639 2.04639,3.24012 0.5116,1.19373 0.5116,2.55798 0.85266,4.2633 0.34107,1.70533 1.0232,3.75172 -1.02319,11.76675 -2.04639,8.01502 -6.8213,21.99869 -9.72035,30.18424 -2.89905,8.18556 -3.92225,10.57301 -5.28651,12.6194 -1.36425,2.04639 -3.06957,3.75172 -5.62756,7.16237 -2.55799,3.41065 -5.96864,8.52661 -10.06143,14.32472 -4.09278,5.79811 -8.86769,12.27834 -11.93727,16.71218 -3.06958,4.43384 -4.43384,6.8213 -6.30969,9.37929 -1.87586,2.55798 -4.26331,5.28649 -5.96864,7.50342 -1.70532,2.21692 -2.72852,3.92225 -4.94544,6.48024 -2.21692,2.55799 -5.62756,5.96863 -7.84448,8.01502 -2.21693,2.0464 -3.24013,2.72853 -3.92226,3.58119 -0.68214,0.85266 -1.0232,1.87584 0.34106,1.36425 1.36425,-0.51159 4.43385,-2.55798 7.67396,-4.09277 3.24012,-1.53479 6.65078,-2.55799 11.59621,-4.43385 4.94544,-1.87585 11.42567,-4.60437 17.39431,-6.65076 5.96864,-2.04639 11.42567,-3.41065 15.51846,-4.60438 4.09279,-1.19373 6.8213,-2.21693 9.20875,-2.72852 2.38746,-0.5116 4.43385,-0.5116 8.18556,-1.19373 3.75172,-0.68213 9.20875,-2.04639 16.54165,-2.89905 7.3329,-0.85266 16.54164,-1.19373 23.19241,-1.36426 6.65076,-0.17053 10.74355,-0.17053 14.83632,0.34107 4.09278,0.5116 8.18556,1.53479 10.74354,2.38745 2.55798,0.85266 3.58118,1.53479 4.94543,2.04639 1.36426,0.51159 3.06961,0.85267 7.16238,3.06959 4.09278,2.21692 10.57301,6.3097 14.15419,9.03822 3.58118,2.72853 4.2633,4.09277 6.30969,10.91407 2.0464,6.8213 5.45705,19.09963 6.13918,26.94413 0.68213,7.8445 -1.36425,11.25514 -3.24012,14.32473 -1.87586,3.06959 -3.58118,5.79809 -9.72035,10.57301 -6.13918,4.77491 -16.71217,11.59619 -34.78861,16.20057 -18.07643,4.60438 -43.65632,6.99184 -58.49263,8.18557 -14.83632,1.19373 -18.9291,1.19373 -20.9755,2.04638 -2.04639,0.85266 -2.04639,2.55798 -1.53479,4.26332 0.5116,1.70533 1.53479,3.41065 2.21693,4.94545 0.68213,1.53479 1.02319,2.89903 3.58118,7.33288 2.55799,4.43385 7.33289,11.93727 10.06141,16.54164 2.72852,4.60437 3.41066,6.30971 5.45705,9.20877 2.04639,2.89905 5.45702,6.99181 9.0382,11.76672 3.58119,4.77491 7.3329,10.23197 9.89089,13.64262 2.55798,3.41064 3.92224,4.7749 5.62757,7.33289 1.70532,2.55799 3.7517,6.3097 6.65076,11.08461 2.89905,4.77491 6.65078,10.57301 10.06143,16.20057 3.41065,5.62757 6.48023,11.08461 9.03821,15.51846 2.55799,4.43385 4.60437,7.8445 5.45703,14.6658 0.85266,6.82129 0.51159,17.05323 0.17053,22.6808 -0.34106,5.62757 -0.68212,6.65077 -4.94543,9.72036 -4.26332,3.06959 -12.44886,8.18554 -18.4175,10.74354 -5.96865,2.55799 -9.72036,2.55799 -13.98367,2.55799 -4.26331,0 -9.03822,0 -13.30153,-0.5116 -4.26331,-0.5116 -8.01502,-1.53479 -16.03004,-5.62757 -8.01503,-4.09278 -20.29337,-11.25514 -30.01372,-19.78176 -9.72035,-8.52663 -16.88271,-18.4175 -20.97549,-24.38614 -4.09279,-5.96864 -5.11598,-8.01504 -5.96864,-9.20876 -0.85265,-1.19373 -1.53478,-1.5348 -2.04638,-2.0464 -0.51159,-0.51159 -0.85266,-1.19372 -1.53479,-1.70531 -0.68213,-0.51159 -1.70533,-0.85266 -3.24012,-3.41064 -1.53479,-2.55799 -3.58119,-7.3329 -5.11598,-10.74355 -1.53479,-3.41065 -2.55798,-5.45705 -3.58117,-6.82131 -1.02319,-1.36425 -2.04638,-2.04638 -2.55799,-2.72851 -0.5116,-0.68213 -0.5116,-1.36426 -0.85267,-1.70533 -0.34107,-0.34107 -1.0232,-0.34107 -1.70532,-0.68213 -0.68213,-0.34106 -1.36427,-1.02319 -2.04639,-1.53478 -0.68213,-0.51159 -1.36428,-0.85267 -1.70534,-1.36427 -0.34106,-0.51161 -0.34106,-1.19373 -1.36425,-1.87586 -1.0232,-0.68212 -3.06959,-1.36426 -4.09278,-2.04638 -1.02318,-0.68213 -1.02318,-1.36428 -1.53478,-1.70534 -0.5116,-0.34106 -1.53479,-0.34106 -2.04639,-0.51159 -0.5116,-0.17054 -0.5116,-0.51159 -1.0232,-0.85266 -0.51159,-0.34107 -1.53479,-0.68213 -2.38745,-1.19373 -0.85266,-0.51159 -1.53479,-1.19371 -2.04639,1.36426 -0.51161,2.55798 -0.85267,8.35609 -1.02321,14.49525 -0.17053,6.13917 -0.17053,12.61942 -0.34106,19.09965 -0.17054,6.48023 -0.5116,12.96046 -0.5116,16.71217 0,3.75171 0.34106,4.77492 0.5116,8.52662 0.17053,3.75171 0.17053,10.23194 -0.34107,13.81314 -0.51159,3.58119 -1.53478,4.26332 -2.04637,5.11597 -0.51159,0.85265 -0.51159,1.87585 -1.02319,2.72852 -0.51161,0.85266 -1.5348,1.53479 -3.06959,3.41065 -1.5348,1.87586 -3.58119,4.94545 -5.62758,7.16237 -2.04639,2.21693 -4.09279,3.58119 -5.7981,5.11597 -1.70532,1.53478 -3.06958,3.24011 -6.65077,5.62757 -3.58118,2.38745 -9.37928,5.45703 -13.64259,7.33288 -4.26331,1.87586 -6.99183,2.558 -8.52663,3.0696 -1.53479,0.5116 -1.87584,0.85265 -3.7517,-5.11598 -1.87586,-5.96864 -5.2865,-18.24696 -6.99183,-30.35477 -1.70532,-12.10781 -1.70532,-24.04507 -1.70532,-38.71087 0,-14.6658 0,-32.06009 0,-40.58672 0,-8.52662 0,-8.18557 -0.17053,-7.50343 -0.17054,0.68213 -0.5116,1.70534 -1.36427,4.26331 -0.85266,2.55798 -2.21692,6.65076 -4.26331,11.93727 -2.04639,5.28651 -4.77491,11.76673 -8.52662,18.4175 -3.75171,6.65076 -8.52662,13.47207 -13.131,18.92911 -4.60439,5.45704 -9.03823,9.54982 -12.10781,12.44886 -3.06958,2.89905 -4.7749,4.60438 -7.50343,6.48024 -2.72852,1.87586 -6.48023,3.92225 -11.5962,5.7981 -5.11598,1.87586 -11.59621,3.58118 -15.51845,4.09278 -3.92225,0.5116 -5.28652,-0.17054 -6.30971,-1.0232 -1.02319,-0.85266 -1.70532,-1.87585 -2.89905,-3.41064 -1.19373,-1.5348 -2.89905,-3.58117 -4.26331,-10.57301 -1.36426,-6.99184 -2.38746,-18.9291 -1.53479,-29.16105 0.85266,-10.23196 3.58118,-18.75858 5.7981,-25.57988 2.21692,-6.8213 3.92224,-11.93726 5.45704,-15.51844 1.53479,-3.58119 2.89905,-5.62756 4.26331,-8.52662 1.36426,-2.89905 2.72851,-6.65076 4.94543,-10.57301 2.21692,-3.92225 5.28651,-8.01504 7.8445,-11.08462 2.55798,-3.06958 4.60438,-5.11596 6.13917,-6.99182 1.53479,-1.87585 2.55799,-3.5812 3.58118,-4.94546 1.02319,-1.36425 2.04639,-2.38745 2.55799,-3.75171 0.5116,-1.36426 0.5116,-3.06958 -1.19372,-3.06958 -1.70533,10e-6 -5.11598,1.70532 -11.25515,4.09278 -6.13917,2.38745 -15.00686,5.45704 -22.16922,7.67396 -7.16236,2.21692 -12.6194,3.58118 -16.37112,4.7749 -3.75171,1.19373 -5.7981,2.21692 -8.35609,2.72852 -2.55798,0.5116 -5.62756,0.5116 -7.50342,0.68213 -1.87587,0.17054 -2.55798,0.5116 -4.43384,0.68214 -1.87586,0.17053 -4.94545,0.17053 -8.69716,-1.02319 -3.75171,-1.19373 -8.18556,-3.58118 -10.91408,-4.77491 -2.72852,-1.19372 -3.75171,-1.19372 -4.77491,-1.53479 -1.0232,-0.34106 -2.04639,-1.02319 -4.94544,-2.21692 -2.89905,-1.19373 -7.67396,-2.89906 -10.23195,-4.09279 -2.55798,-1.19372 -2.89904,-1.87585 -3.75171,-2.72851 -0.85267,-0.85267 -2.21693,-1.87586 -3.58118,-5.96864 -1.36426,-4.09278 -2.72852,-11.25513 -2.04639,-18.07644 0.68213,-6.8213 3.41064,-13.30152 7.16236,-19.78177 3.75172,-6.48024 8.52663,-12.96046 11.42568,-16.37111 2.89905,-3.41065 3.92225,-3.75171 4.77491,-4.26331 0.85265,-0.51159 1.53479,-1.19373 3.06958,-1.70533 1.53479,-0.5116 3.92225,-0.85266 8.69715,-1.70533 4.77491,-0.85266 11.93728,-2.21692 17.90591,-3.58118 5.96864,-1.36425 10.74355,-2.72851 14.1542,-3.58117 3.41065,-0.85266 5.45704,-1.19372 7.67396,-1.87586 2.21692,-0.68213 4.60437,-1.70532 6.30969,-2.21692 1.70533,-0.5116 2.72853,-0.5116 3.75172,-0.85266 1.02319,-0.34107 2.04639,-1.0232 3.58118,-1.70533 1.5348,-0.68213 3.58118,-1.36427 6.48024,-3.58119 2.89905,-2.21692 6.65076,-5.96863 8.52662,-8.35608 1.87586,-2.38746 1.87586,-3.41066 2.04639,-4.26332 0.17054,-0.85266 0.5116,-1.53478 0.5116,-3.58118 0,-2.04639 -0.34107,-5.45702 -0.5116,-7.67395 -0.17053,-2.21693 -0.17053,-3.24013 -1.0232,-5.45705 -0.85266,-2.21692 -2.55798,-5.62756 -3.58118,-8.01501 -1.02319,-2.38746 -1.36426,-3.75172 -2.04639,-4.94545 -0.68213,-1.19373 -1.70532,-2.21692 -2.38745,-3.24011 -0.68213,-1.0232 -1.0232,-2.04639 -2.04639,-3.75172 -1.02319,-1.70532 -2.72852,-4.09278 -3.58118,-5.62757 -0.85266,-1.53479 -0.85266,-2.21692 -1.53479,-3.75171 -0.68213,-1.5348 -2.04639,-3.92225 -4.09278,-7.3329 -2.04639,-3.41065 -4.77491,-7.84449 -6.65077,-10.57301 -1.87586,-2.72851 -2.89905,-3.75171 -3.92225,-5.62757 -1.02319,-1.87586 -2.04639,-4.60438 -3.58118,-10.91408 -1.53479,-6.3097 -3.58118,-16.20058 -4.60438,-22.85134 -1.02319,-6.65077 -1.02319,-10.06142 -0.51159,-13.47207 0.5116,-3.41065 1.53479,-6.8213 2.72852,-10.57301 1.19373,-3.75171 2.55799,-7.84449 3.58118,-10.23194 1.02319,-2.38746 1.70532,-3.06959 2.04639,-3.75172 0.34106,-0.68213 0.34106,-1.36426 0.85266,-1.87586 0.5116,-0.51159 1.5348,-0.85266 2.0464,-1.19372 0.51159,-0.34107 0.51159,-0.68213 1.02318,-0.85266 0.5116,-0.17054 1.5348,-0.17054 2.21693,-0.34107 0.68213,-0.17054 1.02319,-0.5116 2.38745,-0.68213 1.36426,-0.17054 3.75172,-0.17054 6.99183,-0.17054 3.24012,0 7.3329,0 10.23195,0.34107 2.89905,0.34106 4.60438,1.0232 6.3097,1.5348 1.70532,0.51159 3.41065,0.85266 4.26331,1.19372 0.85267,0.34106 0.85267,0.68213 1.87586,1.36426 1.02319,0.68212 3.06958,1.70532 4.60437,2.89905 1.5348,1.19373 2.55799,2.55799 3.41066,3.24012 0.85266,0.68213 1.53479,0.68213 2.04638,1.0232 0.5116,0.34106 0.85267,1.02319 2.04639,2.04638 1.19373,1.02319 3.24012,2.38745 4.26332,3.41065 1.02319,1.02319 1.02319,1.70532 1.87585,2.55798 0.85266,0.85267 2.55799,1.87586 3.92225,3.06959 1.36426,1.19373 2.38745,2.55799 3.06958,3.24012 0.68212,0.68213 1.02319,0.68213 2.21692,1.70533 1.19374,1.02319 3.24012,3.06957 4.60438,4.2633 1.36427,1.19374 2.04639,1.5348 2.55798,2.0464 0.5116,0.5116 0.85266,1.19372 1.5348,1.53478 0.68213,0.34107 1.70532,0.34107 2.21692,0.68214 0.5116,0.34106 0.5116,1.02319 1.36426,1.53479 0.85266,0.51159 2.55798,0.85266 3.75171,1.53479 1.19373,0.68214 1.87585,1.70533 3.58118,2.89905 1.70532,1.19373 4.43386,2.558 6.13918,4.77491 1.70532,2.21692 2.38745,5.2865 3.92225,10.74354 1.53479,5.45704 3.92224,13.30153 7.50342,21.14603 3.58118,7.84449 8.35609,15.68898 11.5962,20.29335 3.24011,4.60438 4.94544,5.96863 6.13917,7.16236 1.19374,1.19373 1.87586,2.21692 4.26331,4.26331 2.38745,2.04639 6.48024,5.11598 9.03823,6.65078 2.55799,1.53479 3.58116,1.53479 5.11595,2.04639 1.5348,0.51159 3.58119,1.53478 5.28652,3.06958 1.70533,1.5348 3.06958,3.58118 4.09278,4.77491 1.0232,1.19373 1.70532,1.53479 3.58118,2.21692 1.87585,0.68213 4.94545,1.70532 6.48024,0.17053 z"
       id="path31"
       inkscape:path-effect="#path-effect31"
       inkscape:original-d="m 636.42711,293.65687 c 0,-4.09276 0,-8.18555 0,-12.27833 0.68212,-2.38745 1.36425,-4.7749 2.04639,-7.16236 2.38745,-10.23195 4.77491,-20.46389 7.16235,-30.69584 2.0464,-4.09278 4.09279,-8.18556 6.13918,-12.27834 1.0232,-4.43384 2.0464,-8.86768 3.06959,-13.30153 5.11596,-8.86769 10.23194,-17.73537 15.3479,-26.60306 5.45706,-9.89088 10.91409,-19.78176 16.37112,-29.67265 1.0232,-1.02319 2.04639,-2.04638 3.06959,-3.06958 1.70532,-2.04639 3.41064,-4.09278 5.11598,-6.13917 2.0464,-1.70532 4.09276,-3.41065 6.13916,-5.11597 0,-0.68213 0,-1.36426 0,-2.04639 1.02319,0 2.04639,0 3.06959,0 1.70532,-1.02319 3.41064,-2.04639 5.11598,-3.06958 4.09276,0 8.18555,0 12.27833,0 1.36425,2.04639 2.72852,4.09277 4.09276,6.13916 2.72855,3.06959 5.45706,6.13917 8.18558,9.20876 0.34105,1.02319 0.68212,2.04639 1.02319,3.06958 1.0232,1.36426 2.0464,2.72852 3.06959,4.09278 1.02317,0.68213 2.04637,1.36426 3.06957,2.04639 0,1.02319 0,2.04639 0,3.06958 1.02319,1.0232 2.04639,2.04639 3.06959,3.06959 0,1.36426 0,2.72851 0,4.09278 0.68212,2.04638 1.36427,4.09277 2.04639,6.13916 -4.77491,13.98366 -9.54982,27.96733 -14.32473,41.95099 -1.02319,2.38745 -2.04639,4.7749 -3.06959,7.16236 -1.70531,1.70532 -3.41063,3.41065 -5.11595,5.11597 -3.41067,5.11598 -6.8213,10.23195 -10.23197,15.34792 -4.77491,6.48024 -9.54982,12.96047 -14.32473,19.4407 -1.36424,2.38746 -2.72851,4.77491 -4.09276,7.16236 -2.38746,2.72852 -4.7749,5.45704 -7.16237,8.18556 -1.0232,1.70532 -2.0464,3.41064 -3.06959,5.11599 -3.41064,3.41064 -6.82128,6.82127 -10.23194,10.23194 -1.0232,0.68212 -2.0464,1.36424 -3.06959,2.04639 -0.34105,1.0232 -0.68212,2.04637 -1.0232,3.06957 3.06959,-2.04637 6.13918,-4.09277 9.20877,-6.13916 3.41064,-1.02319 6.8213,-2.04639 10.23194,-3.06959 6.48023,-2.72851 12.96046,-5.45703 19.44071,-8.18555 5.45703,-1.36427 10.91406,-2.72852 16.37109,-4.09278 2.72855,-1.0232 5.45706,-2.04639 8.18558,-3.06959 2.04639,0 4.09278,0 6.13915,0 5.45706,-1.36426 10.91409,-2.72851 16.37112,-4.09278 9.20877,-0.34106 18.41751,-0.68213 27.62626,-1.02319 4.09278,0 8.18557,0 12.27833,0 4.09279,1.02319 8.18557,2.04639 12.27833,3.06958 1.0232,0.68213 2.0464,1.36426 3.06959,2.04639 1.70532,0.34107 3.41067,0.68213 5.11599,1.0232 6.48023,4.09278 12.96045,8.18557 19.44068,12.27833 0.68215,1.36427 1.36427,2.72851 2.04639,4.09279 3.41067,12.27833 6.82131,24.55666 10.23197,36.835 -2.04639,3.41066 -4.09279,6.8213 -6.13918,10.23196 -1.70532,2.72852 -3.41064,5.45703 -5.11598,8.18555 -10.57302,6.8213 -21.146,13.6426 -31.71902,20.46388 -25.57986,2.38747 -51.15975,4.77491 -76.73962,7.16238 -4.09276,0 -8.18554,0 -12.27833,0 0,1.70531 0,3.41063 0,5.11598 1.0232,1.70532 2.04639,3.41064 3.06959,5.11596 0.34108,1.36427 0.68212,2.72851 1.0232,4.09278 4.77491,7.50343 9.54982,15.00685 14.32472,22.51028 0.68213,1.70531 1.36425,3.41066 2.0464,5.11598 3.41064,4.09279 6.82127,8.18555 10.23194,12.27833 3.75171,5.45703 7.50342,10.91409 11.25513,16.37112 1.36428,1.36425 2.72852,2.72852 4.09279,4.09279 2.04639,3.75171 4.09276,7.50342 6.13915,11.25514 3.75172,5.7981 7.50343,11.59621 11.25517,17.39429 3.06956,5.45705 6.13915,10.91408 9.20874,16.37112 2.04639,3.41066 4.09279,6.8213 6.13915,10.23196 -0.34104,10.23194 -0.68212,20.46388 -1.02319,30.69582 -0.34105,1.0232 -0.68212,2.0464 -1.02317,3.06959 -8.18558,5.11599 -16.37112,10.23194 -24.5567,15.34793 -3.75171,0 -7.50342,0 -11.25513,0 -4.77491,0 -9.54982,0 -14.32473,0 -3.75171,-1.0232 -7.50342,-2.0464 -11.25514,-3.06959 -12.27833,-7.16235 -24.55666,-14.32473 -36.835,-21.48708 -7.16237,-9.89089 -14.32472,-19.78176 -21.4871,-29.67265 -1.0232,-2.04639 -2.04639,-4.09279 -3.06959,-6.13918 -0.68212,-0.34105 -1.36424,-0.68212 -2.04637,-1.0232 -0.34107,-0.68212 -0.68214,-1.36424 -1.02319,-2.04636 -1.0232,-0.34108 -2.0464,-0.68215 -3.06959,-1.0232 -2.0464,-4.77491 -4.09279,-9.54982 -6.13918,-14.32473 -1.0232,-2.04639 -2.0464,-4.09278 -3.06957,-6.13918 -1.02319,-0.68212 -2.04639,-1.36424 -3.06959,-2.04639 0,-0.68212 0,-1.36425 0,-2.04639 -0.68214,0 -1.36427,0 -2.04639,0 -0.68212,-0.68213 -1.36427,-1.36425 -2.04639,-2.04637 -0.68212,-0.34108 -1.36427,-0.68215 -2.0464,-1.0232 0,-0.68215 0,-1.36427 0,-2.04639 -2.04639,-0.68212 -4.09278,-1.36427 -6.13915,-2.04639 0,-0.68213 0,-1.36428 0,-2.0464 -1.0232,0 -2.04639,0 -3.06959,0 0,-0.34107 0,-0.68212 0,-1.02319 -1.0232,-0.34105 -2.04639,-0.68213 -3.06959,-1.0232 -0.68212,-0.68212 -1.36424,-1.36425 -2.04639,-2.04639 -0.34105,5.7981 -0.68212,11.59621 -1.0232,17.39431 0,6.48023 0,12.96048 0,19.44071 -0.34105,6.48023 -0.68212,12.96046 -1.0232,19.44069 0.34108,1.02319 0.68215,2.04639 1.0232,3.06959 0,6.48022 0,12.96045 0,19.44071 -1.0232,0.68212 -2.04639,1.36424 -3.06956,2.04639 0,1.02317 0,2.04637 0,3.06956 -1.0232,0.68215 -2.0464,1.36427 -3.06959,2.0464 -2.0464,3.06959 -4.09279,6.13918 -6.13918,9.20877 -2.0464,1.36424 -4.09279,2.72851 -6.13916,4.09276 -1.36427,1.70531 -2.72851,3.41066 -4.09278,5.11598 -5.79811,3.06959 -11.59621,6.13915 -17.39432,9.20874 -2.72851,0.68212 -5.45703,1.36427 -8.18555,2.0464 -0.34107,0.34107 -0.68212,0.68212 -1.02319,1.02319 -3.41067,-12.27833 -6.8213,-24.55666 -10.23194,-36.835 0,-11.93728 0,-23.87454 0,-35.81183 0,-17.39431 0,-34.7886 0,-52.18292 0,0.34107 0,0.68212 0,1.0232 -0.34108,1.02319 -0.68215,2.04639 -1.0232,3.06959 -1.36427,4.09276 -2.72851,8.18554 -4.09279,12.27833 -2.72851,6.48023 -5.45703,12.96045 -8.18554,19.44068 -4.77491,6.8213 -9.54982,13.64261 -14.32473,20.46391 -4.43385,4.09279 -8.8677,8.18555 -13.30154,12.27833 -1.70532,1.70532 -3.41065,3.41064 -5.11598,5.11599 -3.75171,2.04639 -7.50342,4.09276 -11.25513,6.13915 -6.48024,1.70532 -12.96047,3.41066 -19.4407,5.11598 -1.36426,-0.68212 -2.72853,-1.36427 -4.09278,-2.04639 -0.68213,-1.0232 -1.36426,-2.04639 -2.04639,-3.06959 -1.70533,-2.04639 -3.41065,-4.09276 -5.11598,-6.13915 -1.02319,-11.93729 -2.04639,-23.87455 -3.06958,-35.81183 2.72852,-8.52663 5.45704,-17.05325 8.18556,-25.57987 1.70532,-5.11598 3.41064,-10.23194 5.11597,-15.34792 1.36426,-2.04639 2.72852,-4.09276 4.09278,-6.13915 1.36426,-3.75172 2.72852,-7.50343 4.09278,-11.25517 3.06958,-4.09276 6.13917,-8.18554 9.20875,-12.27833 2.04639,-2.04637 4.09278,-4.09276 6.13917,-6.13915 1.02319,-1.70532 2.04639,-3.41067 3.06958,-5.11599 1.0232,-1.02319 2.04639,-2.04639 3.06959,-3.06959 0,-1.70532 0,-3.41064 0,-5.11595 -3.41065,1.70531 -6.8213,3.41063 -10.23195,5.11595 -8.86769,3.06959 -17.73538,6.13918 -26.60306,9.20877 -5.45704,1.36425 -10.91408,2.72852 -16.37112,4.09276 -2.04639,1.0232 -4.09278,2.0464 -6.13917,3.06959 -3.06958,0 -6.13916,0 -9.20875,0 -0.68213,0.34108 -1.36426,0.68212 -2.04639,1.0232 -3.06958,0 -6.13917,0 -9.20875,0 -4.43384,-2.38744 -8.86769,-4.77491 -13.30153,-7.16235 -1.0232,0 -2.04639,0 -3.06959,0 -1.02319,-0.68215 -2.04638,-1.36427 -3.06958,-2.04639 -4.77491,-1.70532 -9.54982,-3.41067 -14.32473,-5.11599 -0.34106,-0.68212 -0.68213,-1.36424 -1.02319,-2.04639 -1.36426,-1.0232 -2.72852,-2.04639 -4.09278,-3.06956 -1.36426,-7.16238 -2.72852,-14.32473 -4.09278,-21.48711 2.72852,-6.48023 5.45704,-12.96045 8.18556,-19.44071 4.77491,-6.48023 9.54982,-12.96045 14.32473,-19.44068 1.02319,-0.34108 2.04639,-0.68212 3.06958,-1.0232 0.68213,-0.68212 1.36426,-1.36427 2.04639,-2.04639 2.38745,-0.34108 4.77491,-0.68212 7.16236,-1.0232 7.16236,-1.36424 14.32473,-2.72851 21.48709,-4.09278 4.77491,-1.36425 9.54982,-2.72852 14.32473,-4.09276 2.04639,-0.34108 4.09278,-0.68213 6.13916,-1.0232 2.38746,-1.0232 4.77491,-2.04639 7.16237,-3.06959 1.02319,0 2.04639,0 3.06958,0 1.0232,-0.68212 2.04639,-1.36425 3.06959,-2.04639 2.04639,-0.68213 4.09278,-1.36425 6.13916,-2.0464 3.75172,-3.75171 7.50343,-7.50342 11.25515,-11.25513 0,-1.0232 0,-2.0464 0,-3.06959 0.34106,-0.68213 0.68213,-1.36425 1.02319,-2.04637 -0.34106,-3.41067 -0.68213,-6.8213 -1.02319,-10.23197 0,-1.02319 0,-2.04639 0,-3.06956 -1.70533,-3.41067 -3.41065,-6.82131 -5.11598,-10.23196 -0.34106,-1.36426 -0.68213,-2.72852 -1.02319,-4.09278 -1.0232,-1.0232 -2.04639,-2.04639 -3.06959,-3.06958 -0.34106,-1.0232 -0.68213,-2.04639 -1.02319,-3.06959 -1.70533,-2.38745 -3.41065,-4.77491 -5.11597,-7.16236 0,-0.68213 0,-1.36426 0,-2.04639 -1.36427,-2.38745 -2.72852,-4.77491 -4.09278,-7.16236 -2.72852,-4.43385 -5.45704,-8.86769 -8.18556,-13.30153 -1.02319,-1.0232 -2.04639,-2.04639 -3.06959,-3.06959 -1.02319,-2.72852 -2.04638,-5.45704 -3.06958,-8.18556 -2.04639,-9.89088 -4.09278,-19.78176 -6.13917,-29.67264 0,-3.41065 0,-6.8213 0,-10.23195 1.0232,-3.41065 2.04639,-6.8213 3.06959,-10.23195 1.36426,-4.09277 2.72852,-8.18555 4.09278,-12.27833 0.68212,-0.68213 1.36425,-1.36426 2.04638,-2.04639 0,-0.68213 0,-1.36426 0,-2.04639 1.0232,-0.34107 2.0464,-0.68213 3.06959,-1.02319 0,-0.34107 0,-0.68213 0,-1.0232 1.02319,0 2.04639,0 3.06958,0 0.34107,-0.34107 0.68213,-0.68213 1.0232,-1.0232 2.38745,0 4.77491,0 7.16236,0 4.09278,0 8.18556,0 12.27834,0 1.70532,0.68213 3.41065,1.36427 5.11597,2.0464 1.70532,0.34106 3.41065,0.68212 5.11598,1.02319 0,0.34106 0,0.68213 0,1.02319 2.04638,1.0232 4.09277,2.04639 6.13916,3.06959 1.0232,1.36426 2.04639,2.72852 3.06959,4.09278 0.68213,0 1.36426,0 2.04638,0 0.34107,0.68213 0.68213,1.36426 1.0232,2.04638 2.04639,1.36427 4.09278,2.72853 6.13917,4.09278 0,0.68213 0,1.36426 0,2.04639 1.70532,1.0232 3.41065,2.04639 5.11597,3.06959 1.0232,1.36426 2.04639,2.72852 3.06959,4.09278 0.34105,0 0.68212,0 1.0232,0 2.04639,2.04639 4.09276,4.09278 6.13915,6.13916 0.68215,0.34107 1.36427,0.68213 2.04639,1.0232 0.34108,0.68213 0.68213,1.36426 1.0232,2.04639 1.0232,0 2.04639,0 3.06959,0 0,0.68213 0,1.36426 0,2.04639 1.70532,0.34106 3.41064,0.68213 5.11596,1.02319 0.68215,1.0232 1.36427,2.04639 2.04639,3.06959 2.72852,1.36426 5.45706,2.72852 8.18557,4.09278 0.68213,3.06958 1.36425,6.13916 2.0464,9.20875 2.38744,7.84449 4.77491,15.68898 7.16235,23.53348 4.77491,7.84449 9.54982,15.68898 14.32472,23.53347 1.70532,1.36426 3.41064,2.72852 5.11599,4.09278 0.68212,1.0232 1.36424,2.04639 2.04639,3.06959 4.09276,3.06958 8.18555,6.13916 12.27833,9.20875 1.0232,0 2.04637,0 3.06957,0 2.04639,1.02319 4.09278,2.04639 6.13918,3.06958 1.36427,2.04639 2.72851,4.09278 4.09278,6.13918 0.68213,0.34105 1.36425,0.68212 2.0464,1.02319 3.06956,1.0232 6.13915,2.0464 9.20874,3.06957 z"
       transform="matrix(1.0230605,0,0,1.0613334,-13.361577,-8.7338537)" />
    <path
       style="fill:#800000;stroke-width:0.264583"
       d="m 565.82667,284.44813 c -3.06958,-4.77491 -6.13917,-9.54983 -9.20875,-15.17739 -3.06958,-5.62757 -6.13917,-12.1078 -11.25514,-23.70401 -5.11598,-11.59621 -12.27834,-28.30839 -15.85952,-38.54033 -3.58118,-10.23195 -3.58118,-13.98366 -3.75171,-19.78177 -0.17054,-5.7981 -0.5116,-13.64259 2.04638,-24.7272 2.55799,-11.08461 8.01504,-25.40934 12.61941,-34.61809 4.60438,-9.20875 8.35609,-13.30153 10.91408,-16.03005 2.55799,-2.72853 3.92224,-4.09278 5.62756,-5.2865 1.70532,-1.19373 3.75171,-2.21692 5.79811,-3.41065 2.04639,-1.19373 4.09278,-2.55799 6.3097,-3.410655 2.21692,-0.852662 4.60438,-1.193728 9.37929,-1.705325 4.77491,-0.511597 11.93726,-1.193726 19.95229,-1.534791 8.01502,-0.341066 16.88271,-0.341066 21.99868,-4e-6 5.11597,0.341063 6.48024,1.0232 9.54982,2.216928 3.06958,1.193727 7.84449,2.899057 10.40247,4.092787 2.55799,1.19373 2.89906,1.87586 3.75172,2.72852 0.85267,0.85266 2.21692,1.87584 4.26331,3.41064 2.04639,1.53479 4.77491,3.58118 9.72035,10.74354 4.94544,7.16237 12.10781,19.4407 15.85952,30.86637 3.75172,11.42568 4.09279,21.99869 3.75172,30.18425 -0.34107,8.18556 -1.36426,13.98366 -2.21693,17.73537 -0.85266,3.75172 -1.53479,5.45704 -2.55798,10.74355 -1.02319,5.2865 -2.38745,14.15419 -4.2633,22.85135 -1.87586,8.69715 -4.26332,17.22377 -5.79811,23.704 -1.5348,6.48024 -2.21693,10.91408 -3.06959,15.00686 -0.85267,4.09278 -1.87586,7.84449 -3.06959,11.08461 -1.19372,3.24011 -2.55798,5.96864 -3.92224,9.54982 -1.36425,3.58118 -2.72851,8.01501 -3.41065,10.573 -0.68213,2.558 -0.68213,3.24012 -1.02319,4.26331 -0.34106,1.0232 -1.0232,2.38747 0.17053,1.70534 1.19373,-0.68214 4.26331,-3.41066 6.13917,-4.77492 1.87586,-1.36425 2.55799,-1.36425 3.24012,-1.87585 0.68212,-0.5116 1.36425,-1.5348 2.38744,-2.72852 1.0232,-1.19372 2.38746,-2.55798 3.58119,-3.58118 1.19374,-1.02319 2.21693,-1.70532 3.75173,-3.41065 1.53479,-1.70533 3.58117,-4.43384 6.48021,-7.84449 2.89905,-3.41065 6.65077,-7.50343 11.25515,-12.27834 4.60438,-4.77492 10.06141,-10.23195 13.30153,-13.98366 3.24012,-3.75171 4.26331,-5.7981 7.3329,-9.89088 3.06959,-4.09278 8.18555,-10.23195 11.42567,-14.32472 3.24012,-4.09278 4.60438,-6.13917 6.48024,-8.18556 1.87585,-2.04639 4.26332,-4.09278 13.47206,-10.57301 9.20875,-6.48023 25.2388,-17.39431 38.54033,-24.89774 13.30152,-7.50342 23.87453,-11.59621 29.50211,-13.30153 5.62758,-1.70532 6.3097,-1.0232 10.40248,4.43384 4.09278,5.45704 11.59621,15.68897 15.85952,21.65761 4.26331,5.96864 5.2865,7.67397 5.96863,9.54983 0.68213,1.87585 1.02319,3.92224 1.53479,5.7981 0.5116,1.87586 1.19373,3.58118 1.19373,11.08461 0,7.50343 -0.68213,20.80496 -2.89905,30.69584 -2.21692,9.89088 -5.96864,16.37112 -12.1078,24.89774 -6.13917,8.52662 -14.66579,19.09963 -21.48709,25.92093 -6.8213,6.82131 -11.93727,9.89088 -16.88271,12.96046 -4.94544,3.06959 -9.72035,6.13918 -18.07644,10.06143 -8.35608,3.92225 -20.29336,8.69716 -29.50212,11.93728 -9.20876,3.24011 -15.68898,4.94542 -20.63442,6.13915 -4.94543,1.19372 -8.35609,1.87586 -12.78994,3.06959 -4.43384,1.19373 -9.89088,2.89906 -13.47205,3.92225 -3.58118,1.02319 -5.2865,1.36426 -6.65077,2.04639 -1.36427,0.68213 -2.38746,1.70531 -3.75172,2.38744 -1.36426,0.68213 -3.06958,1.0232 -5.45704,2.04639 -2.38745,1.0232 -5.45704,2.72853 -6.48022,3.58119 -1.02319,0.85266 -2e-5,0.85266 1.36425,0.34106 1.36427,-0.5116 3.06959,-1.5348 6.48024,-2.89905 3.41065,-1.36426 8.52661,-3.06958 14.15418,-4.60437 5.62757,-1.53479 11.76675,-2.89905 16.37112,-4.09278 4.60437,-1.19372 7.67396,-2.21692 12.96047,-2.89905 5.28651,-0.68214 12.78993,-1.0232 18.58803,-1.19374 5.79811,-0.17053 9.8909,-0.17053 22.51029,-1.02319 12.6194,-0.85266 33.76543,-2.55798 51.15973,-3.06958 17.3943,-0.5116 31.03691,0.17053 40.75726,4.94543 9.72036,4.77491 15.51847,13.6426 18.58805,20.80497 3.06958,7.16237 3.41063,12.6194 3.41063,20.12283 0,7.50342 -0.34105,17.05323 -1.19372,23.53347 -0.85266,6.48025 -2.21692,9.89088 -3.24012,12.78994 -1.02319,2.89905 -1.70532,5.28649 -8.18555,11.25514 -6.48024,5.96864 -18.75857,15.51845 -27.62626,21.31656 -8.8677,5.7981 -14.32473,7.84449 -21.82816,10.40247 -7.50342,2.55799 -17.05324,5.62758 -23.53348,7.67397 -6.48024,2.0464 -9.89088,3.06959 -13.64259,3.75172 -3.75171,0.68213 -7.8445,1.02318 -14.66579,1.53478 -6.82129,0.51159 -16.3711,1.19372 -23.53347,1.53478 -7.16236,0.34107 -11.93727,0.34107 -16.54166,-0.17053 -4.60438,-0.51159 -9.03821,-1.53477 -15.51844,-3.06956 -6.48023,-1.53479 -15.00685,-3.58118 -20.9755,-5.11598 -5.96864,-1.5348 -9.37927,-2.55799 -14.32472,-4.94545 -4.94545,-2.38746 -11.42567,-6.13917 -15.51846,-8.52663 -4.09279,-2.38746 -5.79811,-3.41065 -6.8213,-4.7749 -1.02319,-1.36426 -1.36426,-3.06958 -0.34106,-3.24011 1.02321,-0.17053 3.41066,1.19372 9.20876,4.60437 5.79811,3.41064 15.00685,8.86768 23.53347,14.15418 8.52662,5.28651 16.37111,10.40248 21.82815,14.32474 5.45704,3.92225 8.52662,6.65075 16.88271,15.34791 8.3561,8.69716 21.9987,23.36296 29.84318,31.71905 7.84449,8.35608 9.89089,10.40248 11.08462,12.10779 1.19372,1.70532 1.53479,3.06959 2.04639,4.43385 0.51159,1.36426 1.19373,2.72852 1.53479,4.43385 0.34107,1.70532 0.34107,3.75171 0.68213,6.3097 0.34107,2.558 1.02318,5.62756 1.70531,10.23195 0.68213,4.60438 1.36426,10.74353 2.55799,17.05323 1.19373,6.30971 2.89905,12.78994 3.24012,16.71219 0.34106,3.92224 -0.68213,5.28649 -1.87586,6.99182 -1.19373,1.70533 -2.55799,3.75172 -4.09278,5.11598 -1.53479,1.36426 -3.24011,2.04639 -5.96863,3.41064 -2.72851,1.36426 -6.48022,3.41065 -9.54981,4.77492 -3.06959,1.36426 -5.45703,2.04639 -7.67397,2.89905 -2.21693,0.85267 -4.26332,1.87587 -6.8213,2.38747 -2.55798,0.51159 -5.62757,0.51159 -17.9059,-1.5348 -12.27833,-2.04638 -33.76544,-6.13917 -46.21431,-9.54982 -12.44887,-3.41066 -15.8595,-6.13918 -19.09962,-8.69716 -3.24011,-2.55798 -6.3097,-4.94543 -11.42568,-13.30152 -5.11597,-8.35609 -12.27833,-22.68082 -16.71218,-32.06011 -4.43384,-9.37929 -6.13917,-13.81313 -8.52662,-26.60306 -2.38745,-12.78993 -5.45704,-33.93596 -7.16236,-47.06695 -1.70532,-13.131 -2.04639,-18.24698 -2.55798,-21.48709 -0.5116,-3.24012 -1.19374,-4.60439 -1.53481,-5.96865 -0.34106,-1.36426 -0.34106,-2.7285 -0.85266,-2.55798 -0.51159,0.17053 -1.53479,1.87585 -2.04639,4.7749 -0.5116,2.89905 -0.5116,6.99184 -0.5116,12.78995 0,5.7981 0,13.30152 0.5116,18.41749 0.51159,5.11597 1.53479,7.84449 2.21692,10.40248 0.68214,2.55799 1.0232,4.94546 2.0464,9.72037 1.0232,4.77491 2.72852,11.93726 3.41066,19.78176 0.68213,7.8445 0.34106,16.37112 -1.70532,24.55667 -2.04638,8.18554 -5.7981,16.03004 -8.86769,22.16921 -3.06959,6.13917 -5.45705,10.57302 -7.8445,14.15419 -2.38745,3.58118 -4.77491,6.3097 -9.03822,11.08461 -4.26331,4.77491 -10.40249,11.59622 -14.1542,15.34793 -3.75171,3.75171 -5.11596,4.43384 -6.99182,5.45703 -1.87586,1.0232 -4.26332,2.38746 -6.3097,3.06958 -2.04638,0.68213 -3.75173,0.68213 -8.3561,-1.36426 -4.60436,-2.04638 -12.1078,-6.13917 -17.05324,-9.89088 -4.94544,-3.75172 -7.3329,-7.16237 -10.06142,-16.03005 -2.72852,-8.86768 -5.7981,-23.19241 -7.3329,-31.88957 -1.53479,-8.69716 -1.53479,-11.76672 0.34107,-19.61122 1.87586,-7.8445 5.62758,-20.46391 9.20876,-33.5949 3.58118,-13.13099 6.99183,-26.7736 9.89088,-36.83501 2.89905,-10.06142 5.28651,-16.54165 8.69716,-25.7504 3.41065,-9.20876 7.84449,-21.14602 10.06141,-26.94413 2.21692,-5.7981 2.21692,-5.45703 1.19372,-3.92224 -1.0232,1.53479 -3.06959,4.26332 -4.94544,6.99184 -1.87586,2.72851 -3.58118,5.45703 -7.67396,11.93727 -4.09278,6.48024 -10.57301,16.71218 -14.49525,23.1924 -3.92225,6.48023 -5.28651,9.20875 -9.37929,15.17739 -4.09279,5.96864 -10.91408,15.17739 -16.88272,24.04508 -5.96864,8.86769 -11.08461,17.39431 -21.82815,30.01371 -10.74354,12.6194 -27.11466,29.33159 -39.05193,37.68767 -11.93727,8.35609 -19.4407,8.35609 -23.53347,7.84449 -4.09278,-0.51159 -4.77491,-1.53479 -6.13917,-2.72851 -1.36426,-1.19373 -3.41065,-2.55799 -8.01503,-7.8445 -4.60439,-5.28651 -11.76674,-14.49525 -15.85952,-21.14601 -4.09278,-6.65077 -5.11597,-10.74356 -5.96863,-13.81314 -0.85266,-3.06957 -1.53479,-5.11596 -1.02319,-11.76673 0.51159,-6.65076 2.21692,-17.90593 4.09277,-25.06828 1.87585,-7.16235 3.92225,-10.23194 5.96864,-13.64259 2.04639,-3.41065 4.09277,-7.16236 8.86769,-13.6426 4.77491,-6.48023 12.27834,-15.68898 21.65762,-26.262 9.37929,-10.57301 20.63442,-22.51028 28.13785,-29.84318 7.50343,-7.3329 11.25514,-10.06141 13.98366,-12.27833 2.72852,-2.21693 4.43384,-3.92225 6.82129,-5.7981 2.38746,-1.87586 5.45705,-3.92225 8.18557,-6.13917 2.72852,-2.21692 5.11596,-4.60438 6.99182,-6.13917 1.87586,-1.5348 3.24012,-2.21693 4.77491,-3.41065 1.5348,-1.19373 3.24012,-2.89905 5.45704,-4.60437 2.21692,-1.70532 4.94545,-3.41066 6.48024,-4.60438 1.53479,-1.19373 1.87585,-1.87585 2.38745,-2.21693 0.5116,-0.34107 1.19373,-0.34107 2.21693,-0.85266 1.02319,-0.5116 2.38746,-1.53479 3.06958,-2.21692 0.68213,-0.68213 0.68213,-1.0232 0.85266,-1.19373 0.17053,-0.17052 0.5116,-0.17052 0.68213,-0.34106 0.17053,-0.17053 0.17053,-0.51161 0.85266,-0.68213 0.68213,-0.17052 2.04639,-0.17052 3.41065,-0.34105 1.36426,-0.17054 2.72852,-0.5116 3.75172,-0.68214 1.02319,-0.17053 1.70532,-0.17053 -1.0232,0.5116 -2.72852,0.68212 -8.86769,2.04638 -15.51846,3.06957 -6.65076,1.02319 -13.81312,1.70532 -17.73537,1.70532 -3.92224,0 -4.60437,-0.68212 -6.30969,-1.70532 -1.70533,-1.02319 -4.43386,-2.38745 -7.67397,-4.09277 -3.24012,-1.70533 -6.99183,-3.75172 -11.93727,-6.8213 -4.94545,-3.06959 -11.08461,-7.16236 -16.54165,-10.91407 -5.45704,-3.75172 -10.23196,-7.16237 -13.47206,-9.72035 -3.24011,-2.55799 -4.94545,-4.26332 -7.50343,-6.13918 -2.55799,-1.87586 -5.96865,-3.92224 -8.3561,-5.62756 -2.38745,-1.70533 -3.7517,-3.06958 -4.94543,-4.09278 -1.19372,-1.0232 -2.21693,-1.70533 -3.06959,-2.558 -0.85266,-0.85266 -1.53479,-1.87585 -2.72852,-2.89905 -1.19373,-1.02319 -2.89905,-2.04638 -4.09278,-3.24011 -1.19372,-1.19373 -1.87586,-2.558 -4.26331,-11.93728 -2.38745,-9.37928 -6.48023,-26.77359 -7.67396,-41.60991 -1.19372,-14.83632 0.5116,-27.11466 4.09279,-36.15288 3.58118,-9.03822 9.03821,-14.83632 12.44886,-18.24697 3.41065,-3.41065 4.77491,-4.43384 9.03822,-5.45704 4.26331,-1.02319 11.42568,-2.04639 15.68899,-2.04639 4.26331,0 5.62757,1.0232 7.16236,1.53479 1.53479,0.5116 3.24012,0.5116 4.94545,1.0232 1.70532,0.5116 3.41064,1.53479 5.11597,2.21692 1.70532,0.68213 3.41065,1.02319 7.50343,2.38745 4.09277,1.36426 10.57301,3.75172 15.17739,5.62757 4.60437,1.87586 7.33289,3.24012 10.06141,4.94544 2.72851,1.70533 5.45703,3.75172 7.67396,5.11598 2.21692,1.36426 3.92224,2.04639 5.45703,2.89905 1.5348,0.85266 2.89906,1.87585 5.28651,3.06958 2.38745,1.19373 5.7981,2.55799 11.42567,5.28651 5.62757,2.72852 13.47207,6.8213 18.58804,9.54982 5.11598,2.72852 7.50343,4.09278 9.03822,5.11598 1.53479,1.02319 2.21692,1.70532 2.89905,2.04639 0.68213,0.34106 1.36426,0.34106 3.24012,1.36426 1.87585,1.02319 4.94544,3.06959 8.18556,5.62757 3.24011,2.55799 6.65076,5.62756 9.20875,7.84449 2.55799,2.21692 4.26331,3.58118 6.3097,7.16236 2.04639,3.58119 4.43384,9.37928 6.8213,15.1774"
       id="path29"
       inkscape:path-effect="#path-effect29"
       inkscape:original-d="m 565.82667,284.44813 c -3.06959,-4.77491 -6.13918,-9.54982 -9.20874,-14.32473 -3.06959,-6.48023 -6.13918,-12.96046 -9.20877,-19.4407 -7.16235,-16.71218 -14.32472,-33.42436 -21.48708,-50.13654 0,-3.75171 0,-7.50342 0,-11.25514 -0.34107,-7.84449 -0.68213,-15.68898 -1.0232,-23.53348 5.45704,-14.32472 10.91408,-28.64945 16.37113,-42.97417 3.75171,-4.09278 7.50342,-8.18556 11.25513,-12.27834 1.36428,-1.36426 2.72852,-2.72852 4.09279,-4.09278 2.04637,-1.02319 4.09276,-2.04639 6.13915,-3.06958 2.0464,-1.36426 4.09279,-2.72852 6.13918,-4.092782 2.38745,-0.341064 4.77491,-0.68213 7.16235,-1.023194 7.16238,-0.68213 14.32473,-1.364261 21.48711,-2.046391 8.86767,0 17.73536,0 26.60306,0 1.36424,0.68213 2.72851,1.364261 4.09276,2.046391 4.77491,1.705324 9.54982,3.410646 14.32472,5.115976 0.34108,0.68213 0.68215,1.36426 1.0232,2.04639 1.36427,1.02319 2.72852,2.04639 4.09279,3.06958 2.72851,2.04639 5.45703,4.09278 8.18554,6.13917 7.16238,12.27833 14.32473,24.55667 21.48711,36.83501 0.34107,10.57301 0.68212,21.14602 1.02319,31.71903 -1.02319,5.79811 -2.04639,11.59621 -3.06959,17.39431 -0.68212,1.70533 -1.36427,3.41065 -2.04639,5.11598 -1.36424,8.86768 -2.72851,17.73537 -4.09276,26.60306 -2.38747,8.52662 -4.77491,17.05324 -7.16238,25.57986 -0.68212,4.43385 -1.36427,8.86769 -2.04639,13.30154 -1.0232,3.75171 -2.04639,7.50342 -3.06959,11.25514 -1.36424,2.72852 -2.72851,5.45704 -4.09276,8.18556 -1.36427,4.43384 -2.72851,8.86767 -4.09279,13.30153 0,0.68213 0,1.36425 0,2.0464 -0.68212,1.36424 -1.36427,2.72851 -2.04639,4.09276 3.06959,-2.72852 6.13918,-5.45703 9.20874,-8.18555 0.68215,0 1.36428,0 2.0464,0 0.68215,-1.02319 1.36427,-2.04639 2.04639,-3.06959 1.36427,-1.36424 2.72852,-2.72851 4.09279,-4.09278 1.02319,-0.68213 2.04639,-1.36425 3.06959,-2.04637 2.04639,-2.72854 4.09276,-5.45705 6.13915,-8.18557 3.75171,-4.09278 7.50343,-8.18556 11.25514,-12.27834 5.45706,-5.45704 10.91409,-10.91407 16.37112,-16.37111 1.02319,-2.04639 2.04639,-4.09278 3.06959,-6.13917 5.11598,-6.13917 10.23194,-12.27834 15.34792,-18.41751 1.36425,-2.04639 2.72852,-4.09277 4.09279,-6.13916 2.38744,-2.04639 4.77491,-4.09278 7.16235,-6.13917 16.03004,-10.91408 32.06009,-21.82816 48.09016,-32.74223 10.57299,-4.09278 21.146,-8.18556 31.71902,-12.27834 0.68215,0.68213 1.36427,1.36426 2.04639,2.04639 7.50343,10.23195 15.00685,20.46389 22.5103,30.69584 1.02317,1.70533 2.04637,3.41065 3.06956,5.11598 0.34108,2.04638 0.68215,4.09277 1.0232,6.13916 0.68212,1.70533 1.36427,3.41065 2.04639,5.11598 -0.68212,13.30153 -1.36427,26.60306 -2.04639,39.90459 -3.75171,6.48023 -7.50342,12.96047 -11.25514,19.4407 -8.52662,10.57301 -17.05324,21.14602 -25.57986,31.71904 -5.11598,3.06959 -10.23194,6.13917 -15.34792,9.20874 -4.77491,3.06959 -9.54982,6.13918 -14.32473,9.20877 -11.93726,4.77491 -23.87454,9.54982 -35.8118,14.32473 -6.48026,1.70531 -12.96048,3.41063 -19.44071,5.11595 -3.41064,0.68215 -6.8213,1.36427 -10.23194,2.0464 -5.45706,1.70531 -10.91409,3.41066 -16.37112,5.11598 -1.70532,0.34105 -3.41064,0.68212 -5.11599,1.0232 -1.02319,1.02319 -2.04639,2.04636 -3.06956,3.06956 -1.70534,0.34107 -3.41066,0.68215 -5.11598,1.0232 -3.06959,1.70534 -6.13918,3.41066 -9.20875,5.11598 1.0232,0 2.04637,0 3.06957,0 1.70534,-1.0232 3.41066,-2.04639 5.11598,-3.06959 5.11598,-1.70532 10.23194,-3.41064 15.34792,-5.11596 6.13916,-1.36427 12.27834,-2.72854 18.41752,-4.09278 3.06956,-1.0232 6.13915,-2.0464 9.20874,-3.06959 7.50343,-0.34108 15.00685,-0.68213 22.51027,-1.0232 4.09279,0 8.18558,0 12.27834,0 21.14603,-1.70532 42.29206,-3.41064 63.43808,-5.11596 13.64258,0.68212 27.28519,1.36425 40.92779,2.04637 5.79811,8.86769 11.59621,17.73539 17.39432,26.60306 0.34105,5.45706 0.68212,10.91409 1.02317,16.37112 -0.34105,9.54982 -0.68212,19.09963 -1.02317,28.64945 -1.36427,3.41067 -2.72854,6.8213 -4.09279,10.23194 -0.68212,2.38747 -1.36427,4.77491 -2.04639,7.16238 -12.27834,9.54982 -24.55667,19.09963 -36.835,28.64945 -5.45706,2.0464 -10.91409,4.09279 -16.37112,6.13916 -9.54982,3.06959 -19.09964,6.13918 -28.64946,9.20877 -3.41066,1.02319 -6.8213,2.04639 -10.23194,3.06959 -4.09278,0.34104 -8.18557,0.68212 -12.27833,1.02317 -9.54982,0.68214 -19.09963,1.36427 -28.64945,2.04639 -4.77491,0 -9.54982,0 -14.32473,0 -4.43386,-1.0232 -8.86769,-2.04639 -13.30153,-3.06956 -8.52662,-2.0464 -17.05324,-4.09279 -25.57989,-6.13918 -3.41064,-1.0232 -6.82127,-2.0464 -10.23194,-3.06959 -6.48023,-3.75172 -12.96045,-7.50343 -19.44068,-11.25514 -1.70535,-1.0232 -3.41067,-2.04639 -5.11599,-3.06959 -0.34107,-1.70532 -0.68212,-3.41064 -1.02319,-5.11596 2.38747,1.36425 4.77491,2.72852 7.16237,4.09276 9.20875,5.45706 18.41749,10.91409 27.62626,16.37112 7.84447,5.11599 15.68897,10.23194 23.53347,15.34793 3.06959,2.72851 6.13915,5.45703 9.20874,8.18554 13.64261,14.6658 27.28521,29.3316 40.92779,43.99738 2.04639,2.04639 4.09279,4.09279 6.13918,6.13918 0.34105,1.36424 0.68212,2.72851 1.0232,4.09279 0.68212,1.36424 1.36424,2.72851 2.04639,4.09276 0,2.04639 0,4.09278 0,6.13918 0.68212,3.06959 1.36425,6.13915 2.04637,9.20874 0.68215,6.13918 1.36427,12.27833 2.04639,18.41751 1.70532,6.48023 3.41067,12.96046 5.11598,19.44069 -1.02319,1.36427 -2.04639,2.72851 -3.06959,4.09278 -1.36424,2.0464 -2.72851,4.09279 -4.09278,6.13918 -1.70532,0.68212 -3.41064,1.36425 -5.11596,2.04637 -3.75171,2.04639 -7.50342,4.09279 -11.25514,6.13918 -2.38746,0.68212 -4.7749,1.36427 -7.16237,2.04639 -2.0464,1.0232 -4.09279,2.0464 -6.13916,3.06959 -3.06959,0 -6.13918,0 -9.20877,0 -21.48707,-4.09278 -42.97418,-8.18557 -64.46125,-12.27833 -3.41067,-2.72854 -6.8213,-5.45706 -10.23194,-8.18557 -3.06959,-2.38745 -6.13918,-4.77491 -9.20877,-7.16235 -7.16235,-14.32473 -14.32473,-28.64946 -21.48708,-42.97418 -1.70532,-4.43387 -3.41066,-8.8677 -5.11598,-13.30153 -3.06959,-21.14603 -6.13916,-42.29206 -9.20875,-63.43809 -0.34107,-5.11596 -0.68212,-10.23194 -1.02319,-15.34792 -0.68212,-1.36425 -1.36427,-2.72852 -2.0464,-4.09276 0,-1.36428 0,-2.72852 0,-4.09279 -1.02319,1.70532 -2.04639,3.41064 -3.06959,5.11598 0,4.09276 0,8.18555 0,12.27834 0,7.50342 0,15.00684 0,22.51027 1.0232,2.72851 2.0464,5.45703 3.06959,8.18557 0.34108,2.38744 0.68213,4.77491 1.0232,7.16235 1.70532,7.16238 3.41064,14.32473 5.11598,21.48708 -0.34107,8.52665 -0.68214,17.05327 -1.02319,25.57989 -3.75171,7.84447 -7.50343,15.68897 -11.25514,23.53347 -2.38747,4.43383 -4.77491,8.86769 -7.16238,13.30153 -2.38744,2.72851 -4.7749,5.45703 -7.16235,8.18555 -6.13918,6.8213 -12.27836,13.6426 -18.41751,20.4639 -1.36427,0.68212 -2.72851,1.36425 -4.09279,2.0464 -2.38744,1.36424 -4.7749,2.72851 -7.16235,4.09276 -1.70531,0 -3.41066,0 -5.11598,0 -7.50342,-4.09276 -15.00685,-8.18555 -22.51028,-12.27834 -2.38746,-3.41064 -4.77491,-6.8213 -7.16236,-10.23194 -3.06959,-14.32472 -6.13917,-28.64945 -9.20876,-42.97418 0,-3.06959 0,-6.13915 0,-9.20874 3.75172,-12.61941 7.50343,-25.23882 11.25515,-37.8582 3.41065,-13.6426 6.82129,-27.28521 10.23194,-40.92778 2.38746,-6.48026 4.77491,-12.96049 7.16237,-19.44071 4.43384,-11.93729 8.8677,-23.87455 13.30153,-35.81181 0,0.34105 0,0.68212 0,1.02317 -2.04639,2.72854 -4.09279,5.45706 -6.13918,8.18558 -1.70532,2.72851 -3.41064,5.45703 -5.11596,8.18554 -6.48024,10.23197 -12.96047,20.46391 -19.4407,30.69585 -1.36426,2.72851 -2.72852,5.45703 -4.09278,8.18555 -6.8213,9.20877 -13.6426,18.41751 -20.4639,27.62625 -5.11597,8.52665 -10.23194,17.05327 -15.34792,25.57989 -16.37111,16.71217 -32.74223,33.42436 -49.11334,50.13653 -7.50343,0 -15.00686,0 -22.51028,0 -0.68213,-1.02319 -1.36426,-2.04639 -2.0464,-3.06959 -2.04638,-1.36424 -4.09277,-2.72851 -6.13916,-4.09276 -7.16237,-9.20877 -14.32473,-18.41751 -21.48709,-27.62625 -1.0232,-4.09279 -2.04639,-8.18558 -3.06959,-12.27836 -0.68213,-2.04637 -1.36425,-4.09276 -2.04638,-6.13916 1.70532,-11.25513 3.41064,-22.5103 5.11597,-33.76543 2.04639,-3.06957 4.09278,-6.13916 6.13917,-9.20875 2.04639,-3.75171 4.09278,-7.50342 6.13916,-11.25513 7.50343,-9.20877 15.00686,-18.41752 22.51029,-27.62626 11.25514,-11.93729 22.51028,-23.87455 33.76542,-35.81183 3.75172,-2.72852 7.50343,-5.45703 11.25514,-8.18555 1.70533,-1.70532 3.41065,-3.41064 5.11598,-5.11598 3.06958,-2.04639 6.13917,-4.09276 9.20875,-6.13915 2.38745,-2.38747 4.77491,-4.77491 7.16236,-7.16238 1.36426,-0.68212 2.72852,-1.36425 4.09278,-2.04639 1.70533,-1.70532 3.41065,-3.41064 5.11598,-5.11596 2.72851,-1.70532 5.45703,-3.41067 8.18555,-5.11598 0.34107,-0.68213 0.68213,-1.36425 1.0232,-2.0464 0.68213,0 1.36426,0 2.04639,0 1.36426,-1.02319 2.72852,-2.04639 4.09278,-3.06956 0,-0.34108 0,-0.68215 0,-1.0232 0.34106,0 0.68213,0 1.02319,0 0,-0.34107 0,-0.68215 0,-1.02319 1.36426,0 2.72852,0 4.09278,0 1.36426,-0.34108 2.72852,-0.68215 4.09278,-1.0232 0.68213,0 1.36426,0 2.04639,0 -6.13917,1.36424 -12.27834,2.72851 -18.41751,4.09276 -7.16236,0.68215 -14.32472,1.36427 -21.48708,2.04639 -0.68214,-0.68212 -1.36427,-1.36424 -2.0464,-2.04639 -2.72851,-1.36425 -5.45703,-2.72852 -8.18555,-4.09276 -3.75172,-2.04639 -7.50343,-4.09279 -11.25514,-6.13918 -6.13917,-4.09279 -12.27834,-8.18555 -18.41751,-12.27833 -4.77491,-3.41064 -9.54982,-6.82131 -14.32472,-10.23194 -1.70533,-1.70532 -3.41065,-3.41067 -5.11598,-5.11599 -3.41065,-2.04639 -6.8213,-4.09278 -10.23195,-6.13915 -1.36426,-1.36427 -2.72851,-2.72852 -4.09277,-4.09279 -1.0232,-0.68212 -2.04639,-1.36427 -3.06959,-2.04639 -0.68213,-1.0232 -1.36426,-2.04639 -2.04639,-3.06959 -1.70532,-1.0232 -3.41065,-2.04639 -5.11597,-3.06957 -0.68213,-1.36427 -1.36426,-2.72854 -2.04639,-4.09278 -4.09278,-17.39432 -8.18556,-34.78863 -12.27834,-52.18294 1.70533,-12.27833 3.41065,-24.55667 5.11598,-36.835 5.45704,-5.79811 10.91407,-11.59621 16.37111,-17.39432 1.36426,-1.02319 2.72852,-2.04638 4.09278,-3.06958 7.16236,-1.02319 14.32473,-2.04639 21.48709,-3.06958 1.36426,1.02319 2.72852,2.04639 4.09278,3.06958 1.70532,0 3.41065,0 5.11597,0 1.70533,1.0232 3.41065,2.04639 5.11597,3.06958 1.70533,0.34107 3.41066,0.68214 5.11598,1.0232 6.48023,2.38745 12.96047,4.77491 19.4407,7.16236 2.72852,1.36426 5.45704,2.72852 8.18556,4.09278 2.72851,2.04639 5.45703,4.09278 8.18555,6.13917 1.70533,0.68213 3.41065,1.36426 5.11598,2.04639 1.36426,1.02319 2.72851,2.04639 4.09278,3.06958 3.41064,1.36426 6.82129,2.72852 10.23194,4.09278 7.84449,4.09278 15.68899,8.18556 23.53348,12.27834 2.38746,1.36426 4.77491,2.72852 7.16236,4.09278 0.68213,0.68213 1.36426,1.36426 2.04639,2.04639 0.68213,0 1.36426,0 2.04639,0 3.06959,2.04638 6.13918,4.09278 9.20874,6.13917 3.41067,3.06958 6.82131,6.13916 10.23197,9.20875 1.70532,1.36426 3.41064,2.72852 5.11596,4.09278 2.38747,5.7981 4.77491,11.5962 7.16237,17.39432" />
    <path
       style="fill:#d45500;stroke-width:0.264583"
       d="m 563.95083,328.44551 c 6.99183,-4.09278 20.29336,-9.20876 29.84317,-12.27834 9.54982,-3.06959 15.34793,-4.09279 23.53348,-3.58119 8.18554,0.5116 18.75856,2.558 24.89772,4.43385 6.13917,1.87585 7.84451,3.58118 10.57303,6.13917 2.72852,2.55799 6.48022,5.96863 9.03821,8.86768 2.55799,2.89906 3.92226,5.28651 8.01503,10.57301 4.09278,5.2865 10.91408,13.47206 14.49526,20.97549 3.58117,7.50343 3.92224,14.32473 3.06957,19.78178 -0.85266,5.45704 -2.89904,9.54981 -5.62756,14.15419 -2.72852,4.60438 -6.13917,9.72034 -8.52662,12.78992 -2.38746,3.06959 -3.75172,4.09279 -5.11598,5.45705 -1.36425,1.36426 -2.72852,3.06959 -11.08461,6.8213 -8.35609,3.75171 -23.70401,9.54981 -34.61809,12.61939 -10.91407,3.06959 -17.3943,3.41065 -21.65761,3.24012 -4.26331,-0.17053 -6.3097,-0.85266 -12.96047,-3.58118 -6.65076,-2.72852 -17.9059,-7.50342 -24.38614,-10.57301 -6.48023,-3.06959 -8.18556,-4.43385 -9.89088,-5.45705 -1.70532,-1.02319 -3.41066,-1.70531 -6.65077,-5.45703 -3.24012,-3.75171 -8.01502,-10.57301 -10.23195,-18.58803 -2.21692,-8.01502 -1.87585,-17.22379 -1.19372,-23.53349 0.68213,-6.30969 1.70532,-9.72035 2.21692,-11.93726 0.5116,-2.21692 0.5116,-3.24012 0.85266,-4.09278 0.34106,-0.85266 1.0232,-1.5348 1.70533,-2.72853 0.68213,-1.19372 1.36426,-2.89904 2.04639,-3.7517 0.68213,-0.85266 1.36425,-0.85266 1.70532,-1.02319 0.34108,-0.17054 0.34108,-0.51162 1.0232,-1.02321 0.68213,-0.51158 2.04639,-1.19372 3.06958,-2.04639 1.02319,-0.85266 1.70532,-1.87586 2.55799,-2.38745 0.85266,-0.5116 1.87585,-0.5116 2.72851,-1.02319 0.85266,-0.5116 1.5348,-1.5348 2.21693,-3.58119 0.68214,-2.0464 1.36426,-5.11596 8.3561,-9.20874 z"
       id="path30"
       inkscape:path-effect="#path-effect30"
       inkscape:original-d="m 557.64113,329.4687 c 13.30153,-5.11598 26.60306,-10.23194 39.90459,-15.34792 5.7981,-1.0232 11.59621,-2.0464 17.39429,-3.06959 10.57301,2.04639 21.14603,4.09278 31.71904,6.13918 1.70532,1.70531 3.41067,3.41063 5.11598,5.11595 3.75172,3.41067 7.50343,6.8213 11.25514,10.23197 1.36427,2.38744 2.72852,4.77491 4.09279,7.16235 6.82127,8.18557 13.64258,16.37112 20.46388,24.55667 0.34107,6.8213 0.68212,13.6426 1.02319,20.4639 -2.04639,4.09279 -4.09278,8.18555 -6.13915,12.27834 -3.41066,5.11598 -6.8213,10.23194 -10.23197,15.34792 -1.36424,1.0232 -2.72851,2.04639 -4.09276,3.06959 -1.36427,1.70532 -2.72854,3.41064 -4.09278,5.11596 -15.34793,5.7981 -30.69585,11.59621 -46.04377,17.39431 -6.48023,0.34108 -12.96046,0.68212 -19.44069,1.0232 -2.04639,-0.68212 -4.09278,-1.36427 -6.13918,-2.04639 -11.25513,-4.77491 -22.51027,-9.54982 -33.76543,-14.32473 -1.70532,-1.36425 -3.41064,-2.72852 -5.11596,-4.09279 -1.70532,-0.68212 -3.41066,-1.36424 -5.11598,-2.04636 -4.77491,-6.82131 -9.54981,-13.64261 -14.32472,-20.46391 0.34106,-9.20874 0.68213,-18.41751 1.02319,-27.62626 1.0232,-3.41064 2.04639,-6.8213 3.06959,-10.23194 0,-1.02319 0,-2.04639 0,-3.06959 0.68213,-0.68212 1.36426,-1.36427 2.04639,-2.04639 0.68212,-1.70532 1.36425,-3.41064 2.04639,-5.11596 0.68213,0 1.36425,0 2.0464,0 0,-0.34107 0,-0.68215 0,-1.02319 1.36424,-0.68215 2.72851,-1.36428 4.09276,-2.0464 0.68215,-1.02319 1.36427,-2.04639 2.04639,-3.06959 1.0232,0 2.04639,0 3.06959,0 0.68212,-1.02319 1.36425,-2.04639 2.04639,-3.06959 0.68213,-3.06959 1.36425,-6.13915 2.0464,-9.20874 z" />
    <path
       style="fill:#00ccff;stroke-width:0.264583"
       d="m 577.76395,359.82348 c 1.70533,-1.70533 3.06958,-3.75171 4.77491,-5.28651 1.70533,-1.5348 3.7517,-2.55799 5.79809,-3.58118 2.04639,-1.0232 4.09279,-2.04639 8.69716,-2.38746 4.60437,-0.34106 11.76674,-10e-6 17.56485,1.53479 5.79811,1.5348 10.23194,4.26332 12.78992,6.30971 2.55798,2.04638 3.24012,3.41065 4.09277,4.60437 0.85266,1.19372 1.87587,2.21691 2.558,3.41065 0.68214,1.19373 1.02319,2.55797 1.53479,3.58117 0.51159,1.0232 1.19374,1.70535 1.53481,2.558 0.34106,0.85266 0.34106,1.87586 0.34106,3.75172 0,1.87585 0,4.60437 0,7.16236 0,2.55799 0,4.94543 -1.19373,7.50342 -1.19373,2.558 -3.58118,5.28651 -6.3097,7.67396 -2.72851,2.38745 -5.7981,4.43385 -11.42567,5.45705 -5.62757,1.0232 -13.81314,1.0232 -19.61125,0.5116 -5.7981,-0.5116 -9.20874,-1.53479 -11.0846,-2.21692 -1.87587,-0.68214 -2.21693,-1.02322 -2.89905,-1.19374 -0.68212,-0.17053 -1.70532,-0.17053 -2.55798,-0.51159 -0.85266,-0.34106 -1.53481,-1.02321 -2.21693,-1.36427 -0.68212,-0.34106 -1.36427,-0.34106 -2.0464,-0.85266 -0.68212,-0.51159 -1.36425,-1.53479 -2.04638,-2.04639 -0.68213,-0.5116 -1.36425,-0.5116 -1.87586,-1.70532 -0.51161,-1.19373 -0.85267,-3.58119 -1.5348,-5.96864 -0.68213,-2.38745 -1.70531,-4.7749 -2.2169,-6.65076 -0.5116,-1.87586 -0.5116,-3.24013 -0.68214,-4.09279 -0.17054,-0.85265 -0.51161,-1.19373 -0.17054,-3.06959 0.34108,-1.87585 1.36427,-5.28649 2.89906,-7.67394 1.53478,-2.38745 3.58118,-3.75171 5.28651,-5.45704 z"
       id="path32"
       inkscape:path-effect="#path-effect32"
       inkscape:original-d="m 578.10501,360.16455 c 1.36427,-2.0464 2.72851,-4.09279 4.09278,-6.13918 2.0464,-1.0232 4.09276,-2.0464 6.13916,-3.06959 2.04639,-1.0232 4.09278,-2.0464 6.13918,-3.06957 7.16235,0.34105 14.32472,0.68212 21.48707,1.02317 4.43387,2.72854 8.8677,5.45706 13.30153,8.18558 0.68215,1.36424 1.36428,2.72851 2.0464,4.09278 1.02319,1.02317 2.04639,2.04637 3.06959,3.06957 0.34107,1.36427 0.68212,2.72851 1.02319,4.09278 0.68213,0.68212 1.36428,1.36427 2.0464,2.0464 0,1.02319 0,2.04639 0,3.06959 0,2.72851 0,5.45703 0,8.18554 0,2.38747 0,4.77491 0,7.16238 -2.38747,2.72851 -4.77491,5.45703 -7.16238,8.18555 -3.06956,2.04639 -6.13915,4.09278 -9.20874,6.13918 -8.18555,0 -16.37112,0 -24.55667,0 -3.41066,-1.0232 -6.8213,-2.0464 -10.23197,-3.06959 -0.34104,-0.34108 -0.68212,-0.68215 -1.02317,-1.0232 -1.02319,0 -2.04639,0 -3.06959,0 -0.68212,-0.68212 -1.36427,-1.36427 -2.04639,-2.04639 -0.68212,0 -1.36427,0 -2.04639,0 -0.68212,-1.0232 -1.36425,-2.0464 -2.0464,-3.06959 -0.68212,0 -1.36424,0 -2.04639,0 -0.34105,-2.38745 -0.68212,-4.77491 -1.0232,-7.16235 -1.02317,-2.38747 -2.04636,-4.77491 -3.06956,-7.16238 0,-1.36425 0,-2.72852 0,-4.09276 -0.34107,-0.34108 -0.68215,-0.68215 -1.0232,-1.0232 1.0232,-3.41066 2.0464,-6.8213 3.06959,-10.23196 2.04637,-1.36425 4.09276,-2.72852 6.13916,-4.09276 z" />
    <path
       style="fill:#00ccff;stroke-width:0.264583"
       d="m 805.42476,138.30182 c -5.96862,-1.53479 -15.85952,-4.94544 -24.04507,-8.86769 -8.18556,-3.92225 -14.66579,-8.35609 -11.5962,-16.54165 3.06958,-8.18556 15.68897,-20.122822 25.06826,-26.091459 9.37929,-5.968636 15.51845,-5.968636 22.51029,-2.89905 6.99184,3.069586 14.83631,9.208745 19.27016,12.789926 4.43384,3.581183 5.45704,4.604383 6.48024,6.991833 1.0232,2.38746 2.04639,6.13917 2.55799,8.69715 0.5116,2.55799 0.5116,3.92225 -1.0232,5.79811 -1.53479,1.87586 -4.60438,4.26331 -7.33289,6.48023 -2.72852,2.21692 -5.11599,4.26332 -6.48024,5.62758 -1.36426,1.36426 -1.70532,2.04637 -2.21692,2.38744 -0.51159,0.34107 -1.19374,0.34107 -2.38746,0.85267 -1.19372,0.51159 -2.89904,1.53478 -4.2633,2.21692 -1.36426,0.68213 -2.38745,1.02319 -2.89905,1.53479 -0.5116,0.5116 -0.5116,1.19373 -1.0232,1.53479 -0.5116,0.34107 -1.53479,0.34107 -3.06959,0.5116 -1.53479,0.17054 -3.58119,0.5116 -9.54982,-1.02319 z"
       id="path33"
       inkscape:path-effect="#path-effect33"
       inkscape:original-d="m 809.347,140.17768 c -9.89086,-3.41065 -19.78176,-6.8213 -29.67262,-10.23195 -6.48026,-4.43384 -12.96048,-8.86769 -19.44071,-13.30153 12.61941,-11.93727 25.23879,-23.874545 37.85819,-35.811815 6.13918,0 12.27834,0 18.41752,0 7.8445,6.139167 15.68897,12.278336 23.53347,18.417503 1.02319,1.023192 2.04639,2.046392 3.06959,3.069582 1.02319,3.75172 2.04639,7.50343 3.06959,11.25514 0,1.36426 0,2.72852 0,4.09278 -3.06959,2.38746 -6.13918,4.77491 -9.20877,7.16237 -2.38744,2.04638 -4.77491,4.09278 -7.16235,6.13916 -0.34108,0.68213 -0.68212,1.36426 -1.0232,2.04639 -0.68212,0 -1.36427,0 -2.04639,0 -1.70532,1.0232 -3.41064,2.04639 -5.11599,3.06959 -1.02317,0.34106 -2.04636,0.68213 -3.06956,1.02319 0,0.68213 0,1.36426 0,2.04639 -1.0232,0 -2.04639,0 -3.06959,0 -2.04639,0.34107 -4.09279,0.68213 -6.13918,1.0232 z" />
    <path
       style="fill:#00ccff;stroke-width:0.264583"
       d="m 872.78508,597.71623 c -4.09278,-0.85266 -9.20876,-2.55798 -15.34793,-4.94544 -6.13917,-2.38745 -13.30152,-5.45704 -16.03004,-10.40247 -2.72853,-4.94543 -1.0232,-11.76674 1.19373,-16.71218 2.21692,-4.94545 4.94544,-8.01503 9.89089,-12.27834 4.94544,-4.26331 12.10779,-9.72034 16.03004,-12.78993 3.92225,-3.06959 4.60438,-3.75171 6.65076,-4.09278 2.04639,-0.34106 5.45706,-0.34106 8.52663,0.85266 3.06957,1.19373 5.7981,3.58118 8.01503,5.45704 2.21693,1.87587 3.92225,3.24013 5.45704,4.94545 1.53479,1.70533 2.89905,3.75171 4.43384,5.7981 1.5348,2.04639 3.2401,4.09277 4.7749,5.7981 1.5348,1.70533 2.89904,3.06957 4.09277,4.09277 1.19373,1.0232 2.21693,1.70533 3.0696,5.45705 0.85266,3.75172 1.53479,10.57299 1.53479,14.32472 -10e-6,3.75172 -0.68213,4.43385 -2.21692,6.13917 -1.53479,1.70532 -3.92224,4.43383 -5.45703,5.7981 -1.5348,1.36427 -2.21693,1.36427 -4.09278,1.87586 -1.87586,0.51159 -4.94545,1.53479 -8.52664,1.87585 -3.58119,0.34106 -7.67395,0 -11.25513,-0.17054 -3.58119,-0.17053 -6.65078,-0.17053 -10.74355,-1.02319 z"
       id="path34"
       inkscape:path-effect="#path-effect34"
       inkscape:original-d="m 873.80828,598.56889 c -5.11598,-1.70532 -10.23196,-3.41064 -15.34792,-5.11596 -7.16238,-3.06959 -14.32473,-6.13918 -21.4871,-9.20877 1.70534,-6.82127 3.41066,-13.64258 5.11598,-20.46388 2.72852,-3.06959 5.45703,-6.13918 8.18555,-9.20874 7.16237,-5.45706 14.32472,-10.91409 21.4871,-16.37112 0.68212,-0.68215 1.36425,-1.36427 2.04639,-2.04639 3.41064,0 6.82131,0 10.23194,0 2.72852,2.38744 5.45704,4.7749 8.18555,7.16235 1.70535,1.36427 3.41067,2.72854 5.11598,4.09278 1.36428,2.0464 2.72852,4.09279 4.09279,6.13918 1.70532,2.0464 3.41064,4.09276 5.11596,6.13916 1.36427,1.36427 2.72851,2.72851 4.09278,4.09278 1.0232,0.68212 2.0464,1.36425 3.06959,2.0464 0.68213,6.8213 1.36425,13.64257 2.0464,20.46388 -0.68215,0.68214 -1.36427,1.36427 -2.0464,2.04639 -2.38746,2.72851 -4.7749,5.45703 -7.16237,8.18557 -0.68212,0 -1.36425,0 -2.0464,0 -3.06956,1.02317 -6.13915,2.04637 -9.20874,3.06957 -4.09279,-0.34105 -8.18555,-0.68213 -12.27833,-1.0232 -3.06959,0 -6.13918,0 -9.20875,0 z" />
    <path
       style="fill:#00ccff;stroke-width:0.264583"
       d="m 415.07599,694.7492 c -9.20875,-2.04639 -25.92093,-7.16237 -34.27702,-19.09964 -8.35609,-11.93727 -8.35609,-30.69583 -3.92225,-41.95098 4.43384,-11.25514 13.30153,-15.00686 18.9291,-16.88271 5.62757,-1.87586 8.01503,-1.87586 10.23195,-1.87586 2.21692,0 4.26331,0 7.50342,1.36426 3.24011,1.36426 7.67396,4.09278 12.61941,8.3561 4.94544,4.26332 10.40247,10.0614 13.47206,14.15419 3.06959,4.09278 3.75171,6.48022 4.77491,12.1078 1.0232,5.62758 2.38745,14.49525 2.04639,20.80496 -0.34107,6.3097 -2.38745,10.06141 -3.75172,12.6194 -1.36426,2.558 -2.04638,3.92224 -2.72851,4.94544 -0.68212,1.0232 -1.36425,1.70533 -1.70532,2.38746 -0.34107,0.68213 -0.34107,1.36425 -2.04639,1.87585 -1.70533,0.51161 -5.11598,0.85266 -7.67397,1.53479 -2.55798,0.68213 -4.26331,1.70532 -13.47206,-0.34106 z"
       id="path35"
       inkscape:path-effect="#path-effect35"
       inkscape:original-d="m 422.57942,697.81878 c -16.71218,-5.11596 -33.42436,-10.23194 -50.13654,-15.34792 0,-18.75857 0,-37.51713 0,-56.27571 8.86768,-3.75172 17.73537,-7.50343 26.60306,-11.25514 2.38745,0 4.77491,0 7.16236,0 2.04639,0 4.09278,0 6.13917,0 4.43384,2.72851 8.86769,5.45703 13.30153,8.18557 5.45704,5.79811 10.91408,11.59619 16.37111,17.39429 0.68213,2.38747 1.36426,4.77491 2.0464,7.16238 1.36426,8.86769 2.72851,17.73536 4.09277,26.60306 -2.04639,3.75171 -4.09277,7.50342 -6.13917,11.25514 -0.68212,1.36427 -1.36425,2.72851 -2.04638,4.09278 -0.68213,0.68212 -1.36426,1.36425 -2.04639,2.0464 0,0.68212 0,1.36424 0,2.04639 -3.41065,0.34105 -6.8213,0.68212 -10.23195,1.02317 -1.70532,1.0232 -3.41065,2.04639 -5.11597,3.06959 z" />
    <path
       style="fill:#00ccff;stroke-width:0.264583"
       d="m 453.44579,122.78337 c -5.96864,2.04639 -13.81313,6.13917 -18.75857,7.84449 -4.94544,1.70532 -6.99183,1.02319 -11.25514,-2.21693 -4.26331,-3.24011 -10.74355,-9.03822 -13.6426,-13.13099 -2.89905,-4.09278 -2.21692,-6.48023 0.17053,-9.37928 2.38746,-2.89906 6.48024,-6.309707 9.20876,-8.185564 2.72852,-1.875858 4.09278,-2.216922 8.69715,-3.410649 4.60438,-1.193727 12.44887,-3.240116 18.41751,-4.433843 5.96863,-1.193727 10.06141,-1.534793 15.00685,1.534791 4.94544,3.069583 10.74355,9.549815 12.27834,14.665795 1.53479,5.11597 -1.19373,8.86768 -2.89905,11.08461 -1.70533,2.21692 -2.38746,2.89905 -4.77491,3.24012 -2.38746,0.34106 -6.48023,0.34106 -12.44887,2.38745 z"
       id="path36"
       inkscape:path-effect="#path-effect36"
       inkscape:original-d="m 455.32165,120.73698 c -7.8445,4.09278 -15.68899,8.18556 -23.53348,12.27833 -2.04639,-0.68213 -4.09278,-1.36426 -6.13917,-2.04639 -6.48023,-5.7981 -12.96047,-11.5962 -19.4407,-17.39431 0.68213,-2.38745 1.36426,-4.7749 2.04639,-7.16236 4.09278,-3.41065 8.18556,-6.821296 12.27834,-10.231947 1.36426,-0.341064 2.72852,-0.682127 4.09278,-1.023194 7.84449,-2.046388 15.68898,-4.092778 23.53347,-6.139167 4.09278,-0.341066 8.18556,-0.68213 12.27834,-1.023196 5.7981,6.480233 11.59621,12.960464 17.39431,19.440704 -2.72852,3.75171 -5.45704,7.50342 -8.18556,11.25514 -0.68213,0.68213 -1.36426,1.36426 -2.04639,2.04639 -4.09278,0 -8.18555,0 -12.27833,0 z" />
    <path
       style="fill:#00ccff;stroke-width:0.264583"
       d="m 494.20305,82.196643 c -3.75172,-1.705324 -9.54982,-5.115973 -12.44887,-7.332895 -2.89905,-2.216923 -2.89905,-3.240117 -2.04639,-5.627571 0.85266,-2.387454 2.55799,-6.139165 3.75171,-8.52662 1.19373,-2.387456 1.87586,-3.410651 2.72852,-4.092781 0.85266,-0.682129 1.87586,-1.023196 2.72852,-1.534793 0.85266,-0.511597 1.53479,-1.193726 4.94544,-1.364258 3.41065,-0.170532 9.54982,0.170533 13.131,1.534793 3.58118,1.36426 4.60437,3.751712 5.2865,6.480231 0.68214,2.728519 1.0232,5.798103 0.17054,9.038222 -0.85266,3.24012 -2.89905,6.650768 -4.26331,8.356091 -1.36426,1.705323 -2.04639,1.705323 -3.06959,2.21692 -1.02319,0.511597 -2.38745,1.534791 -3.92224,2.046388 -1.5348,0.511597 -3.24012,0.511597 -6.99183,-1.193727 z"
       id="path37"
       inkscape:path-effect="#path-effect37"
       inkscape:original-d="m 496.24943,83.901967 c -5.7981,-3.410648 -11.5962,-6.821297 -17.3943,-10.231945 0,-1.023197 0,-2.046391 0,-3.069585 1.70532,-3.751715 3.41064,-7.503427 5.11597,-11.255142 0.68213,-1.023194 1.36426,-2.046388 2.04639,-3.069585 1.02319,-0.341063 2.04639,-0.68213 3.06958,-1.023194 0.68213,-0.68213 1.36426,-1.36426 2.04639,-2.046388 6.13917,0.341064 12.27834,0.682128 18.4175,1.023194 1.0232,2.387455 2.04639,4.774909 3.06959,7.162364 0.34107,3.069582 0.68213,6.139166 1.0232,9.208751 -2.0464,3.410649 -4.09279,6.821297 -6.13917,10.231948 -0.68213,0 -1.36426,0 -2.04639,0 -1.36426,1.023194 -2.72852,2.046388 -4.09278,3.069582 -1.70533,0 -3.41065,0 -5.11598,0 z" />
    <path
       style="fill:#00ccff;stroke-width:0.264583"
       d="m 380.79897,77.080669 c 1.53479,0.341066 3.24011,2e-6 6.13917,-1.023194 2.89905,-1.023195 6.99182,-2.728518 9.03821,-4.092778 2.04639,-1.36426 2.04639,-2.387454 -1.19373,-4.945441 -3.24011,-2.557987 -9.72034,-6.650764 -13.98365,-8.867687 -4.26331,-2.216923 -6.30971,-2.557989 -7.16237,0.17053 -0.85266,2.72852 -0.51159,8.526623 -0.17053,11.766739 0.34106,3.240116 0.68213,3.922249 1.19373,4.263314 0.5116,0.341064 1.19373,0.341064 2.21692,0.85266 1.02319,0.511595 2.38745,1.534792 3.92225,1.875857 z"
       id="path38"
       inkscape:path-effect="#path-effect38"
       inkscape:original-d="m 380.62843,77.7628 c 1.70533,-0.341066 3.41065,-0.68213 5.11598,-1.023194 4.09278,-1.705326 8.18555,-3.410651 12.27833,-5.115975 0,-1.023194 0,-2.046388 0,-3.069585 -6.48023,-4.092778 -12.96046,-8.185557 -19.4407,-12.278336 -2.04638,-0.341063 -4.09278,-0.68213 -6.13916,-1.023194 0.34106,5.798103 0.68213,11.596206 1.02319,17.394309 0.34106,0.68213 0.68213,1.364261 1.02319,2.046391 0.68214,0 1.36427,0 2.0464,0 1.36425,1.023194 2.72851,2.04639 4.09277,3.069584 z" />
    <path
       style="fill:#00ccff;stroke-width:0.264583"
       d="m 906.03891,504.09393 c 0.85266,0.68213 1.19372,2.04638 3.58118,3.41064 2.38747,1.36427 6.8213,2.72853 10.57301,1.70533 3.75172,-1.0232 6.82129,-4.43385 8.18556,-8.69715 1.36427,-4.26331 1.0232,-9.3793 0.34107,-12.10781 -0.68213,-2.72851 -1.70533,-3.06958 -3.58119,-4.09278 -1.87586,-1.02319 -4.60437,-2.72852 -8.01502,-3.58118 -3.41065,-0.85266 -7.50343,-0.85266 -10.74355,2.38745 -3.24011,3.24011 -5.62756,9.72035 -6.48023,13.30153 -0.85267,3.58119 -0.17054,4.2633 0.5116,4.94544 0.68214,0.68213 1.36426,1.36425 2.38745,1.70532 1.02319,0.34107 2.38746,0.34107 3.24012,1.02321 z"
       id="path39"
       inkscape:path-effect="#path-effect39"
       inkscape:original-d="m 906.5505,503.41179 c 0.34107,1.36427 0.68215,2.72851 1.02319,4.09278 4.43387,1.36427 8.8677,2.72852 13.30153,4.09279 3.06959,-3.41067 6.13918,-6.8213 9.20877,-10.23197 -0.34107,-5.11595 -0.68214,-10.23194 -1.02319,-15.34789 -1.0232,-0.34108 -2.0464,-0.68215 -3.06959,-1.0232 -2.72852,-1.70535 -5.45703,-3.41067 -8.18555,-5.11598 -4.09279,0 -8.18557,0 -12.27836,0 -2.38744,6.48022 -4.77491,12.96045 -7.16235,19.44071 0.68212,0.68212 1.36425,1.36424 2.04639,2.04636 0.68213,0.68215 1.36425,1.36427 2.0464,2.0464 1.36424,0 2.72851,0 4.09276,0 z" />
    <path
       style="fill:#00ccff;stroke-width:0.264583"
       d="m 858.63089,519.10079 c -3.24012,2.72851 -9.3793,2.72851 -14.49527,1.53478 -5.11597,-1.19374 -9.20873,-3.58118 -11.25512,-5.11598 -2.0464,-1.53479 -2.0464,-2.21691 -2.21693,-3.58117 -0.17053,-1.36426 -0.5116,-3.41065 -0.34107,-4.77491 0.17053,-1.36426 0.85267,-2.04639 1.36426,-2.89905 0.5116,-0.85267 0.85267,-1.87587 4.94544,-2.89906 4.09277,-1.02319 11.93727,-2.04638 16.71218,-2.04638 4.77492,0 6.48024,1.02318 7.33291,2.04638 0.85266,1.02319 0.85266,2.04639 1.02319,2.72852 0.17053,0.68212 0.51159,1.02318 0.5116,3.92224 0,2.89905 -0.34106,8.35611 -3.58119,11.08463 z"
       id="path40"
       inkscape:path-effect="#path-effect40"
       inkscape:original-d="m 861.52995,521.8293 c -6.13918,0 -12.27836,0 -18.41751,0 -4.09279,-2.38747 -8.18555,-4.77491 -12.27834,-7.16238 0,-0.68212 0,-1.36424 0,-2.04636 -0.34107,-2.0464 -0.68212,-4.09279 -1.02319,-6.13918 0.68212,-0.68213 1.36424,-1.36428 2.04639,-2.0464 0.34105,-1.02319 0.68212,-2.04639 1.0232,-3.06959 7.84447,-1.02317 15.68897,-2.04636 23.53347,-3.06956 1.70532,1.0232 3.41064,2.04639 5.11598,3.06956 0,1.0232 0,2.0464 0,3.06959 0.34105,0.34108 0.68212,0.68212 1.0232,1.0232 -0.34108,5.45703 -0.68215,10.91409 -1.0232,16.37112 z" />
    <path
       style="fill:#00ccff;stroke-width:0.264583"
       d="m 324.18219,578.78714 c 2.55799,1.0232 5.96864,1.70533 10.57301,2.04639 4.60438,0.34107 10.40248,0.34107 13.6426,-0.34106 3.24012,-0.68214 3.92225,-2.04639 2.21692,-6.48024 -1.70532,-4.43384 -5.7981,-11.93727 -8.69715,-15.68898 -2.89905,-3.75171 -4.60438,-3.75171 -8.01503,-2.38745 -3.41065,1.36426 -8.52662,4.09277 -11.25514,6.48023 -2.72852,2.38745 -3.06958,4.43384 -3.41065,6.48022 -0.34106,2.04638 -0.68213,4.09278 0,5.79811 0.68213,1.70532 2.38745,3.06958 4.94544,4.09278 z"
       id="path41"
       inkscape:path-effect="#path-effect41"
       inkscape:original-d="m 323.32953,579.12821 c 3.41065,0.68212 6.8213,1.36424 10.23195,2.04639 5.7981,0 11.5962,0 17.39431,0 0.68213,-1.36427 1.36426,-2.72852 2.04639,-4.09279 -4.09278,-7.50342 -8.18556,-15.00685 -12.27834,-22.51027 -1.70532,0 -3.41065,0 -5.11597,0 -5.11598,2.72851 -10.23195,5.45703 -15.34792,8.18555 -0.34107,2.04639 -0.68213,4.09278 -1.0232,6.13918 -0.34106,2.04636 -0.68213,4.09276 -1.02319,6.13915 1.70532,1.36427 3.41065,2.72851 5.11597,4.09279 z" />
  </g>
  <g
     inkscape:groupmode="layer"
     id="layer2"
     inkscape:label="Layer 2"
     style="display:none"
     transform="translate(-43.603547,-30.143724)">
    <path
       style="fill:#803300;stroke-width:0.207433"
       d="m 143.24725,227.61735 v 203.15876 l 92.43989,84.91401 H 440.8388 l 69.73536,-80.94606 -2.43264,-219.03054 -90.00726,-64.2807 H 209.7391 Z"
       id="path3" />
    <path
       style="fill:#333333;stroke-width:0.264583"
       d="m 267.05383,447.13608 113.57459,-1.0232 54.22932,-63.43806 2.04639,-83.90197 h 108.45863 l 61.3917,-105.38905 -518.759714,1.0232 34.788624,117.66738 104.36584,-3.06959 5.11599,92.08754 z"
       id="path4" />
    <path
       style="fill:#333333;stroke-width:0.264583"
       d="m 251.70591,500.3422 c -2.0464,98.22669 0,98.22669 0,98.22669 l 30.69582,38.88142 80.8324,4.09276 35.8118,-39.90459 -2.04639,-109.48183 z"
       id="path5" />
    <path
       style="fill:#333333;stroke-width:0.294115"
       d="M 128.92253,108.43306 496.24943,98.226698 480.27869,155.09074 143.11874,156.5488 Z"
       id="path6" />
    <path
       style="fill:#ffcc00;stroke-width:0.276842"
       d="m 409.27788,325.69567 257.84506,-47.3867 -9.43337,174.96629 c 0,0 -245.26724,-48.84475 -245.26724,-52.4899 0,-3.64511 -3.14445,-75.08969 -3.14445,-75.08969 z"
       id="path7" />
    <path
       style="fill:#ffcc00;stroke-width:0.258032"
       d="M 253.28844,330.32209 259.89146,394.2606 25.484379,435.88093 12.278327,297.74965 Z"
       id="path8" />
    <path
       style="fill:#ffcc00;stroke-width:0.361179"
       d="m 283.27222,444.98903 100.67014,-3.9921 48.86899,231.54392 -196.45338,11.97643 z"
       id="path9" />
    <path
       style="fill:#ffcc00;stroke-width:0.452226"
       d="M 282.78966,299.79605 375.82168,297.03454 438.95051,42.974189 237.38117,56.78182 Z"
       id="path10" />
    <path
       style="fill:#e3dbdb;stroke-width:0.264583"
       d="m 283.42492,359.14134 22.5103,-28.64946 54.22931,-2.04639 25.57987,30.69585 -8.18555,43.99737 -20.46391,21.48708 -40.92778,1.0232 -27.62626,-22.51028 z"
       id="path11" />
    <path
       style="fill:#ff0000;stroke-width:0.264583"
       d="M 410.30106,270.12339 502.3886,34.78862 640.51989,196.45338 Z"
       id="path12" />
    <path
       style="fill:#ff0000;stroke-width:0.264583"
       d="M 223.05644,273.19298 114.59781,54.229319 28.649451,213.84769 Z"
       id="path13" />
    <path
       style="fill:#ff0000;stroke-width:0.264583"
       d="M 446.11289,468.62317 449.18248,657.91418 612.89363,541.27 Z"
       id="path14" />
    <path
       style="fill:#ff0000;stroke-width:0.264583"
       d="M 241.47395,452.25205 158.59518,653.82142 46.043762,562.75707 Z"
       id="path15" />
    <path
       style="fill:#782121;stroke-width:0.264583"
       d="m 439.29159,196.96498 c 1.70532,0.17053 3.75171,0.85266 9.20875,3.75171 5.45704,2.89905 14.32472,8.01502 21.65762,12.27834 7.3329,4.26331 13.13101,7.67396 18.58804,10.91407 5.45703,3.24012 10.57301,6.3097 13.47207,8.35609 2.89905,2.04639 3.58117,3.06959 5.11596,4.43385 1.5348,1.36426 3.92224,3.06958 6.48023,5.45704 2.558,2.38745 5.28651,5.45704 7.50343,8.35609 2.21692,2.89905 3.92226,5.62757 6.99184,9.72035 3.06958,4.09278 7.50344,9.54982 11.25515,13.81313 3.75171,4.26331 6.82129,7.33288 9.20874,10.0614 2.38745,2.72852 4.09278,5.11598 5.96864,7.16237 1.87585,2.0464 3.92224,3.75172 6.48022,6.82131 2.55799,3.06958 5.62757,7.50342 8.69716,11.5962 3.0696,4.09279 6.13917,7.84449 8.18556,10.74355 2.04639,2.89905 3.06958,4.94542 6.3097,10.91407 3.24013,5.96864 8.69717,15.85952 11.93728,22.68082 3.24011,6.82129 4.2633,10.573 5.11596,13.47206 0.85266,2.89905 1.53479,4.94544 1.87586,8.18556 0.34106,3.24011 0.34106,7.67397 0.17053,15.00685 -0.17054,7.33289 -0.5116,17.56483 -1.0232,23.53347 -0.51159,5.96865 -1.19371,7.67397 -1.53477,9.20876 -0.34106,1.5348 -0.34106,2.89904 -0.68213,4.26331 -0.34107,1.36428 -1.02319,2.72852 -1.53479,5.11598 -0.5116,2.38745 -0.85267,5.79811 -1.5348,8.69717 -0.68213,2.89905 -1.70532,5.28649 -2.21692,6.99181 -0.5116,1.70531 -0.5116,2.72851 -0.85266,3.7517 -0.34107,1.0232 -1.02321,2.0464 -2.0464,4.43385 -1.0232,2.38745 -2.38746,6.13917 -3.58118,8.35609 -1.19372,2.21692 -2.21692,2.89906 -3.06958,3.92226 -0.85267,1.0232 -1.53479,2.38745 -6.13916,8.52661 -4.60438,6.13917 -13.13101,17.05325 -23.02189,27.45574 -9.89089,10.40248 -21.14603,20.29336 -28.99052,26.60305 -7.84448,6.30969 -12.27835,9.03823 -17.90591,12.61941 -5.62757,3.58119 -12.44886,8.01503 -18.07643,10.91408 -5.62758,2.89905 -10.06141,4.2633 -13.30153,5.45702 -3.24011,1.19373 -5.28651,2.21692 -7.67396,2.89906 -2.38745,0.68213 -5.11597,1.02319 -9.03822,1.87586 -3.92225,0.85266 -9.03823,2.21692 -12.96046,3.06958 -3.92224,0.85266 -6.65079,1.19373 -10.57303,1.87586 -3.92223,0.68213 -9.03821,1.70533 -12.96046,2.21693 -3.92225,0.5116 -6.65077,0.5116 -13.81313,1.02319 -7.16236,0.5116 -18.75857,1.53478 -28.13785,2.04638 -9.37929,0.51159 -16.54166,0.51159 -25.40934,0.51159 -8.86769,0 -19.4407,0 -26.26199,-0.34106 -6.82129,-0.34107 -9.89088,-1.0232 -15.51845,-1.70532 -5.62757,-0.68213 -13.81314,-1.36426 -19.78177,-2.04638 -5.96863,-0.68213 -9.72034,-1.36426 -13.64259,-1.70533 -3.92225,-0.34106 -8.01504,-0.34106 -11.93729,-0.68213 -3.92224,-0.34106 -7.67395,-1.02319 -12.96046,-1.87585 -5.2865,-0.85267 -12.1078,-1.87586 -23.36294,-3.92225 -11.25514,-2.04639 -26.94413,-5.11598 -38.02874,-8.35609 -11.08461,-3.24012 -17.56484,-6.65077 -22.85135,-9.37928 -5.2865,-2.72852 -9.37928,-4.77492 -15.68898,-10.40248 -6.3097,-5.62757 -14.83633,-14.83633 -19.27017,-19.95231 -4.43384,-5.11597 -4.77491,-6.13917 -6.48023,-10.40248 -1.70532,-4.26331 -4.77491,-11.76673 -6.65076,-16.54164 -1.87586,-4.77491 -2.55799,-6.8213 -4.77491,-10.57302 -2.21692,-3.75172 -5.96863,-9.20875 -8.01502,-12.61939 -2.04639,-3.41065 -2.38746,-4.77492 -3.41066,-6.48024 -1.02319,-1.70532 -2.72851,-3.75171 -4.26331,-6.13917 -1.53479,-2.38745 -2.89905,-5.11597 -4.09278,-7.16236 -1.193728,-2.04639 -2.216916,-3.41064 -4.433839,-10.91408 -2.216924,-7.50343 -5.62757,-21.14601 -5.115975,-37.00553 0.511595,-15.85952 4.94544,-33.93596 8.185558,-44.50897 3.240116,-10.57302 5.286516,-13.64261 6.650776,-16.03006 1.36425,-2.38746 2.04638,-4.09278 2.89904,-5.96863 0.85266,-1.87586 1.87586,-3.92226 3.58118,-6.65078 1.70532,-2.72852 4.09277,-6.13915 7.33289,-11.08459 3.24012,-4.94545 7.3329,-11.42567 10.57302,-16.03005 3.24012,-4.60438 5.62757,-7.33291 7.50343,-9.72036 1.87585,-2.38746 3.24012,-4.43385 5.11597,-6.48023 1.87586,-2.04638 4.26331,-4.09278 5.96864,-5.96863 1.70532,-1.87586 2.72851,-3.58118 4.09277,-5.11598 1.36426,-1.53479 3.0696,-2.89905 5.11598,-5.11597 2.04639,-2.21692 4.43385,-5.28651 8.18556,-8.86769 3.75171,-3.58118 8.86768,-7.67396 14.83632,-12.27833 5.96863,-4.60438 12.78993,-9.72036 16.88271,-12.44887 4.09278,-2.72852 5.45704,-3.06959 6.99183,-3.75172 1.53479,-0.68213 3.24012,-1.70532 5.11597,-2.55799 1.87586,-0.85266 3.92225,-1.53479 12.10781,-4.43384 8.18556,-2.89905 22.51028,-8.01502 40.92779,-12.1078 18.41751,-4.09278 40.92778,-7.16237 57.12837,-8.69716 16.20058,-1.53479 26.09147,-1.53479 35.81181,-2.04639 9.72035,-0.51159 19.27016,-1.53479 25.75041,-2.04638 6.48024,-0.5116 9.89087,-0.5116 13.81312,-0.85267 3.92225,-0.34106 8.35609,-1.02319 11.76674,-1.53479 3.41065,-0.5116 5.79809,-0.85266 8.52662,-1.0232 2.72853,-0.17053 5.79812,-0.17053 8.3561,0.34107 2.55797,0.5116 4.60437,1.53479 5.96862,2.04639 1.36426,0.5116 2.04639,0.5116 2.72852,0.68213 0.68214,0.17053 1.36426,0.51159 1.70534,0.85266 0.34107,0.34107 0.34107,0.68213 1.02319,0.68213 0.68212,1e-5 2.04639,-0.34106 3.75171,-0.17053 z"
       id="path28"
       inkscape:path-effect="#path-effect28"
       inkscape:original-d="m 438.95052,196.45338 c 2.04639,0.68213 4.09278,1.36426 6.13918,2.04639 8.86767,5.11598 17.73536,10.23195 26.60306,15.34792 5.7981,3.41065 11.59621,6.8213 17.39431,10.23195 5.11596,3.06958 10.23194,6.13917 15.34793,9.20875 0.68212,1.02319 1.36424,2.04639 2.04636,3.06958 2.38747,1.70533 4.77491,3.41065 7.16238,5.11598 2.72852,3.06958 5.45703,6.13917 8.18555,9.20875 1.70532,2.72852 3.41066,5.45704 5.11598,8.18556 4.43384,5.45704 8.8677,10.91408 13.30153,16.37111 3.06959,3.06959 6.13915,6.13918 9.20874,9.20874 1.70532,2.38747 3.41067,4.77491 5.11599,7.16238 2.04639,1.70532 4.09278,3.41064 6.13915,5.11598 3.06959,4.43384 6.13918,8.86767 9.20877,13.30153 3.06959,3.75172 6.13915,7.50343 9.20874,11.25514 1.0232,2.04639 2.0464,4.09276 3.06959,6.13915 5.45704,9.8909 10.91407,19.78179 16.37112,29.67265 1.0232,3.75172 2.0464,7.50343 3.06957,11.25514 0.68215,2.04639 1.36427,4.09279 2.04639,6.13918 0,4.43384 0,8.8677 0,13.30153 -0.34105,10.23194 -0.68212,20.46388 -1.0232,30.69585 -0.68212,1.70532 -1.36424,3.41064 -2.04636,5.11595 0,1.36428 0,2.72852 0,4.09279 -0.68215,1.36427 -1.36427,2.72852 -2.0464,4.09279 -0.34107,3.41064 -0.68214,6.8213 -1.02319,10.23194 -1.0232,2.38747 -2.0464,4.77491 -3.06959,7.16237 0,1.02317 0,2.04637 0,3.06957 -0.68212,1.02319 -1.36427,2.04639 -2.0464,3.06959 -1.36424,3.75171 -2.72851,7.50342 -4.09278,11.25513 -1.02317,0.68215 -2.04637,1.36428 -3.06957,2.0464 -0.68214,1.36427 -1.36427,2.72851 -2.04639,4.09278 -8.52662,10.91407 -17.05324,21.82816 -25.57986,32.74222 -11.25517,9.89089 -22.5103,19.78178 -33.76544,29.67265 -4.43383,2.72851 -8.86769,5.45706 -13.30153,8.18557 -6.8213,4.43384 -13.6426,8.86767 -20.46388,13.30153 -4.43386,1.36425 -8.86769,2.72852 -13.30153,4.09276 -2.04639,1.0232 -4.09279,2.04639 -6.13918,3.06959 -2.72851,0.34108 -5.45703,0.68212 -8.18555,1.0232 -5.11598,1.36427 -10.23196,2.72851 -15.34792,4.09278 -2.72851,0.34105 -5.45706,0.68213 -8.18557,1.0232 -5.11596,1.0232 -10.23194,2.04639 -15.34793,3.06959 -2.72851,0 -5.45703,0 -8.18554,0 -11.59621,1.02317 -23.19242,2.04637 -34.78864,3.06956 -7.16235,0 -14.32472,0 -21.48707,0 -10.57302,0 -21.14603,0 -31.71905,0 -3.06956,-0.68212 -6.13915,-1.36424 -9.20874,-2.04639 -8.18555,-0.68212 -16.37112,-1.36424 -24.55667,-2.04637 -3.75171,-0.68214 -7.50342,-1.36427 -11.25513,-2.04639 -4.09279,0 -8.18558,0 -12.27836,0 -3.75171,-0.68215 -7.50342,-1.36427 -11.25513,-2.04639 -6.8213,-1.0232 -13.6426,-2.0464 -20.46389,-3.06959 -15.68899,-3.06959 -31.37798,-6.13916 -47.06696,-9.20875 -6.48023,-3.41066 -12.96047,-6.8213 -19.4407,-10.23194 -4.09278,-2.04639 -8.18556,-4.09278 -12.27834,-6.13918 -8.52662,-9.20874 -17.05324,-18.41751 -25.57987,-27.62625 -0.34106,-1.0232 -0.68213,-2.0464 -1.02319,-3.06959 -3.06958,-7.50343 -6.13917,-15.00685 -9.20875,-22.51028 -0.68213,-2.04639 -1.36426,-4.09278 -2.04639,-6.13918 -3.75172,-5.45703 -7.50343,-10.91406 -11.25514,-16.37112 -0.34107,-1.36424 -0.68213,-2.72851 -1.0232,-4.09276 -1.70532,-2.04639 -3.41065,-4.09278 -5.11597,-6.13918 -1.36426,-2.72851 -2.72852,-5.45703 -4.09278,-8.18554 -1.023195,-1.36427 -2.046389,-2.72852 -3.069583,-4.09279 -3.410651,-13.6426 -6.8213,-27.28518 -10.231948,-40.92779 4.433845,-18.07643 8.867687,-36.15287 13.301531,-54.22931 2.04639,-3.06959 4.09278,-6.13918 6.13917,-9.20875 0.68213,-1.70534 1.36426,-3.41066 2.04639,-5.11598 1.02319,-2.04639 2.04639,-4.09279 3.06958,-6.13918 2.38746,-3.41064 4.77491,-6.82127 7.16236,-10.23194 4.09278,-6.48023 8.18556,-12.96045 12.27834,-19.44068 2.38745,-2.72854 4.77491,-5.45706 7.16236,-8.18558 1.36426,-2.04639 2.72852,-4.09278 4.09278,-6.13915 2.38746,-2.04639 4.77491,-4.09279 7.16237,-6.13918 1.02319,-1.70532 2.04638,-3.41064 3.06958,-5.11598 1.70532,-1.36425 3.41065,-2.72852 5.11597,-4.09276 2.38746,-3.06959 4.77491,-6.13918 7.16237,-9.20876 5.11597,-4.09278 10.23194,-8.18556 15.34792,-12.27834 6.82129,-5.11597 13.64259,-10.23195 20.46389,-15.34792 1.36426,-0.34106 2.72852,-0.68213 4.09278,-1.02319 1.70532,-1.0232 3.41065,-2.04639 5.11597,-3.06959 2.04639,-0.68213 4.09278,-1.36426 6.13917,-2.04639 14.32473,-5.11597 28.64945,-10.23194 42.97418,-15.34792 22.51029,-3.06958 45.02056,-6.13917 67.53084,-9.20875 9.89089,0 19.78178,0 29.67265,0 9.54982,-1.02319 19.09963,-2.04639 28.64945,-3.06958 3.41067,0 6.8213,0 10.23194,0 4.43386,-0.68213 8.8677,-1.36426 13.30153,-2.04639 2.38747,-0.34107 4.77491,-0.68213 7.16238,-1.0232 3.06959,0 6.13918,0 9.20874,0 2.04639,1.0232 4.09279,2.04639 6.13918,3.06959 0.68212,0 1.36425,0 2.04639,0 0.68213,0.34106 1.36425,0.68213 2.0464,1.02319 0,0.34107 0,0.68213 0,1.0232 1.36424,-0.34107 2.72851,-0.68213 4.09276,-1.0232 z" />
    <path
       style="fill:#ff0000;stroke-width:0.264583"
       d="M 502.3886,35.811814 629.26472,71.623628 640.51989,196.45338 Z"
       id="path16" />
    <path
       style="fill:#ff0000;stroke-width:0.273419"
       d="M 117.66739,54.229318 28.649451,105.72343 30.820621,211.8013 Z"
       id="path17" />
    <path
       style="fill:#ff0000;stroke-width:0.264583"
       d="m 50.136541,562.75707 12.278336,89.01795 h 95.157103 z"
       id="path18" />
    <path
       style="fill:#ff0000;stroke-width:0.264583"
       d="m 452.25205,652.79822 155.5256,1.0232 1.02319,-115.62101 z"
       id="path19" />
    <path
       style="display:inline;fill:#008000;stroke-width:0.264583"
       d="m 167.80394,335.60787 109.48182,-112.55142 131.99213,6.13916 82.87877,75.71641 -61.39169,14.32473 -48.09014,-40.92779 -92.08754,10.23194 -63.43806,65.48446 15.34792,92.08754 68.55405,35.8118 75.71639,-6.13915 37.85823,-74.69323 -2.0464,-55.25251 h 73.67 l 6.13918,61.39169 -63.43808,103.34265 -119.71377,25.57987 h -77.76279 l -69.57724,-73.67 z"
       id="path20" />
    <path
       style="fill:#008000;stroke-width:0.264583"
       d="m 427.69538,301.84243 -4.09279,50.13656 h 71.62364 l -10.23194,-52.18295 z"
       id="path21" />
    <path
       style="fill:#008000;stroke-width:0.264583"
       d="M 248.63631,307.98161 432.81136,297.74964 324.35273,258.86826 253.75228,309.00481 Z"
       id="path22" />
    <path
       style="fill:#008000;stroke-width:0.264583"
       d="m 381.65161,282.40175 22.5103,179.05907 56.27571,-97.2035 z"
       id="path23" />
    <path
       style="fill:#008000;stroke-width:0.264583"
       d="m 380.62841,253.75228 45.02058,102.31947 20.4639,-62.41487 z"
       id="path24" />
    <path
       style="fill:#008000;stroke-width:0.264583"
       d="m 429.74177,413.37065 -203.61574,33.76544 104.36585,63.43806 102.31948,-41.95098 z"
       id="path25" />
    <path
       style="fill:#008000;stroke-width:0.264583"
       d="m 270.12339,283.42492 12.27836,180.08226 -68.55406,-16.37109 -3.06958,-125.85295 z"
       id="path26" />
    <path
       style="fill:#008000;stroke-width:0.264583"
       d="m 368.35008,284.44811 36.83503,37.85823 14.32472,-34.78864 -39.90459,-26.60305 z"
       id="path27" />
  </g>
</svg>
